<?xml version="1.0" encoding="utf-8"?>
<!-- Generator: Adobe Illustrator 25.2.0, SVG Export Plug-In . SVG Version: 6.00 Build 0)  -->
<svg version="1.1" xmlns="http://www.w3.org/2000/svg" xmlns:xlink="http://www.w3.org/1999/xlink" x="0px" y="0px"
	 viewBox="0 0 500 500" style="enable-background:new 0 0 500 500;" xml:space="preserve">
<g id="Background_Simple">
	<g>
		<path style="fill:#92E3A9;" d="M470.92,280.06c-14.72,39.43-44.8,82.11-87.14,94.75c-63.96,19.1-71.6,70.65-186.16,65.87
			c-17.86-0.74-34.37-3.26-49.54-7.26c-8.15-2.15-15.92-4.75-23.29-7.75C57.87,398.56,22.96,338.9,20.06,276.47
			c-3.83-82.1,53.46-121.24,90.69-144.15c37.23-22.91,82.1-111.7,194.76-107.89c17.18,0.59,34.31,2.94,50.92,7.44
			c37.91,10.26,76.44,32.95,98.83,66.12c1.68,2.49,3.28,5.04,4.82,7.64C490.05,156.48,491,226.3,470.92,280.06z"/>
		<path style="opacity:0.7;fill:#FFFFFF;" d="M470.92,280.06c-14.72,39.43-44.8,82.11-87.14,94.75
			c-63.96,19.1-71.6,70.65-186.16,65.87c-17.86-0.74-34.37-3.26-49.54-7.26c-8.15-2.15-15.92-4.75-23.29-7.75
			C57.87,398.56,22.96,338.9,20.06,276.47c-3.83-82.1,53.46-121.24,90.69-144.15c37.23-22.91,82.1-111.7,194.76-107.89
			c17.18,0.59,34.31,2.94,50.92,7.44c37.91,10.26,76.44,32.95,98.83,66.12c1.68,2.49,3.28,5.04,4.82,7.64
			C490.05,156.48,491,226.3,470.92,280.06z"/>
	</g>
</g>
<g id="Puzzle">
	<g>
		<g>
			<path style="fill:none;stroke:#263238;stroke-miterlimit:10;" d="M250.5,315.72c-11.62-26.4-9.91-69.64-4.52-73.23
				c5.93-3.96,15.33,16.31,24.72,10.38c9.39-5.93,15.82-18.79,7.91-39.06s-18.29-6.92-25.71-1.98c-7.42,4.94-13.35,0.49-11.87-17.3
				c1.09-13.12,6.22-37.26,8.83-49.03c1.18,0.51,2.36,1.02,3.53,1.57c-23.24-10.88-48.94-14.34-59.82-10.88
				c-10.87,3.46-8.9,4.45-3.46,17.3c11.34,26.81-31.62,36.02-44.02,15.35c-7.42-12.36,3.48-19.3,0.52-28.2
				c-2.97-8.9-57.84,1.48-64.76,5.44c0,0,13.35,40.04,11.37,54.38c-1.98,14.34-8.9,20.76-19.28,10.38
				c-10.38-10.38-23.73-0.99-24.22,16.31c-0.49,17.3,2.47,31.15,14.34,27.19s21.26-18.29,25.21,0c3.96,18.29-2.97,42.02-6.92,58.83
				c0,0,31.15,13.35,45.48,12.36c14.34-0.99,23.24-1.48,18.79-10.38c-4.45-8.9-11.87-14.83-6.43-24.72
				c5.44-9.89,27.19-8.9,38.56-6.43c11.37,2.47,16.31,10.88,12.85,20.27c-3.46,9.39-9.39,18.79,1.48,20.76
				c10.25,1.86,36.32-2.42,62.05-10.79C253.58,314.76,252.04,315.24,250.5,315.72z"/>
			<path style="fill:none;stroke:#263238;stroke-miterlimit:10;" d="M259.82,312.69c-1.52,0.53-3.05,1.04-4.58,1.53
				C256.77,313.72,258.3,313.21,259.82,312.69z"/>
		</g>
		<path style="fill:none;stroke:#263238;stroke-miterlimit:10;" d="M440.27,206.39c-9.39,0-9.89,7.42-19.77,5.93
			c-9.89-1.48-10.88-24.22-0.49-64.27c0,0-11.37,8.4-37.08,8.9c-25.71,0.49-36.09-2.47-29.66-11.87
			c6.43-9.39,11.37-16.81,5.93-24.22c-5.44-7.42-31.64-6.43-40.04,0c-8.4,6.43-2.47,13.84,3.46,22.25
			c5.93,8.4-0.99,13.35-10.88,13.84c-9.89,0.49-35.1,0.99-58.34-9.89c-1.17-0.55-2.35-1.06-3.53-1.57
			c-2.62,11.78-7.74,35.91-8.83,49.03c-1.48,17.8,4.45,22.25,11.87,17.3c7.42-4.94,17.8-18.29,25.71,1.98s1.48,33.12-7.91,39.06
			c-9.39,5.93-18.79-14.34-24.72-10.38c-5.39,3.6-7.11,46.83,4.52,73.23c3.11-0.95,6.23-1.96,9.32-3.03
			c27.19-9.39,54.38-13.84,59.33-7.42c4.94,6.43,2.97,5.44-3.46,15.33c-6.43,9.89-5.93,18.29,4.94,23.24
			c10.88,4.94,37.57,3.96,40.04-7.42c2.47-11.37-11.37-17.8-4.94-28.67c6.43-10.88,63.28,4.94,63.28,4.94s-12.85-43.51-7.91-57.84
			c4.94-14.34,8.9-10.88,16.81-5.44c7.91,5.44,18.29,4.94,22.25-10.88C454.11,222.71,449.66,206.39,440.27,206.39z"/>
	</g>
</g>
<g id="Target">
	<g>
		<g>
			
				<ellipse transform="matrix(0.9043 -0.4268 0.4268 0.9043 4.6567 178.3241)" style="fill:#92E3A9;stroke:#263238;stroke-miterlimit:10;" cx="400.12" cy="78.77" rx="25.2" ry="25.2"/>
			
				<ellipse transform="matrix(0.9948 -0.1021 0.1021 0.9948 -5.953 41.2755)" style="fill:#FFFFFF;stroke:#263238;stroke-miterlimit:10;" cx="400.12" cy="78.77" rx="20.72" ry="20.72"/>
			
				<ellipse transform="matrix(0.903 -0.4296 0.4296 0.903 4.9631 179.5334)" style="fill:#92E3A9;stroke:#263238;stroke-miterlimit:10;" cx="400.12" cy="78.77" rx="15.09" ry="15.09"/>
			<path style="fill:#FFFFFF;stroke:#263238;stroke-miterlimit:10;" d="M409.64,78.77c0-5.26-4.26-9.53-9.53-9.53
				c-5.26,0-9.53,4.26-9.53,9.53c0,5.26,4.26,9.53,9.53,9.53C405.38,88.3,409.64,84.04,409.64,78.77z"/>
			<path style="fill:#92E3A9;stroke:#263238;stroke-miterlimit:10;" d="M404.53,78.77c0-2.44-1.97-4.41-4.41-4.41
				c-2.44,0-4.41,1.97-4.41,4.41s1.97,4.41,4.41,4.41C402.55,83.18,404.53,81.21,404.53,78.77z"/>
		</g>
		<g>
			<polygon style="fill:#263238;stroke:#263238;stroke-miterlimit:10;" points="401.94,71.86 400.11,78.77 406.64,80.2 			"/>
			
				<line style="fill:#FFFFFF;stroke:#263238;stroke-width:2;stroke-miterlimit:10;" x1="404.72" y1="75.71" x2="433.39" y2="60.09"/>
			<polygon style="fill:#263238;stroke:#263238;stroke-miterlimit:10;" points="424.19,65.23 424.61,57.74 438.09,50.04 
				438.09,58.59 			"/>
			<polygon style="fill:#263238;stroke:#263238;stroke-miterlimit:10;" points="443.87,62.66 437.97,58.31 424.13,65.58 
				430.8,69.44 			"/>
		</g>
	</g>
</g>
<g id="Chart">
	<g>
		<rect x="257.99" y="80.3" style="fill:#92E3A9;stroke:#263238;stroke-miterlimit:10;" width="10.02" height="23.86"/>
		<rect x="272.76" y="73.07" style="fill:#92E3A9;stroke:#263238;stroke-miterlimit:10;" width="10.02" height="31.09"/>
		<rect x="287.53" y="80.3" style="fill:#92E3A9;stroke:#263238;stroke-miterlimit:10;" width="10.02" height="23.86"/>
		<rect x="302.31" y="71.5" style="fill:#92E3A9;stroke:#263238;stroke-miterlimit:10;" width="10.02" height="32.66"/>
		<rect x="317.08" y="59.55" style="fill:#92E3A9;stroke:#263238;stroke-miterlimit:10;" width="10.02" height="44.61"/>
		<polygon style="fill:#263238;stroke:#263238;stroke-linecap:round;stroke-linejoin:round;stroke-miterlimit:10;" points="
			313.8,40.65 317.71,42.32 291.12,67.84 278.42,60.91 258.3,73.14 258.3,76.83 278.5,64.55 291.64,71.72 319.89,44.6 321.4,48.57 
			326.99,35.6 		"/>
	</g>
</g>
<g id="Money">
	<g>
		<g>
			
				<ellipse transform="matrix(0.9735 -0.2285 0.2285 0.9735 -12.9019 45.8151)" style="fill:#FFFFFF;stroke:#263238;stroke-miterlimit:10;" cx="191.38" cy="78.62" rx="25.2" ry="25.2"/>
			
				<ellipse transform="matrix(0.9749 -0.2226 0.2226 0.9749 -12.6998 44.5803)" style="fill:#92E3A9;stroke:#263238;stroke-miterlimit:10;" cx="191.38" cy="78.62" rx="22.4" ry="22.4"/>
			
				<ellipse transform="matrix(0.9882 -0.1531 0.1531 0.9882 -9.8037 30.2239)" style="fill:#FFFFFF;stroke:#263238;stroke-miterlimit:10;" cx="191.36" cy="78.77" rx="20.21" ry="20.21"/>
		</g>
		<g>
			<path style="fill:#263238;" d="M191.07,96.06v-3.21c-2.37-0.09-4.14-0.85-5.31-2.28c-1.17-1.43-1.81-3.55-1.9-6.38l4.87-0.83
				c0.05,1.15,0.17,2.11,0.36,2.88c0.2,0.77,0.49,1.35,0.88,1.73c0.39,0.38,0.9,0.57,1.52,0.57c0.71,0,1.2-0.23,1.47-0.69
				c0.26-0.46,0.4-0.99,0.4-1.59c0-1.17-0.27-2.16-0.81-2.95c-0.54-0.79-1.28-1.59-2.23-2.4l-2.93-2.52
				c-0.67-0.62-1.27-1.25-1.79-1.9c-0.53-0.64-0.95-1.38-1.26-2.21c-0.31-0.83-0.47-1.81-0.47-2.93c0-2.16,0.62-3.85,1.85-5.06
				c1.23-1.21,2.88-1.89,4.95-2.05v-3.07h1.66v3.07c1.24,0.07,2.26,0.35,3.05,0.85c0.79,0.49,1.4,1.12,1.81,1.86
				c0.41,0.75,0.71,1.56,0.9,2.45c0.18,0.89,0.3,1.74,0.35,2.57l-4.94,0.72c-0.02-0.85-0.09-1.6-0.21-2.26
				c-0.12-0.66-0.32-1.17-0.62-1.54c-0.3-0.37-0.76-0.54-1.38-0.52c-0.64,0.02-1.13,0.28-1.47,0.76c-0.33,0.48-0.5,1.02-0.5,1.62
				c0,1.06,0.25,1.91,0.76,2.55c0.51,0.64,1.08,1.27,1.73,1.86l2.86,2.48c0.76,0.69,1.46,1.44,2.11,2.24
				c0.64,0.81,1.16,1.7,1.55,2.67c0.39,0.98,0.59,2.1,0.59,3.36c0,1.22-0.25,2.33-0.74,3.33c-0.5,1-1.21,1.81-2.14,2.43
				c-0.93,0.62-2.03,0.99-3.3,1.1v3.24H191.07z"/>
		</g>
	</g>
</g>
<g id="Calendar">
	<g>
		<rect x="62.92" y="59.12" style="fill:#FFFFFF;stroke:#263238;stroke-miterlimit:10;" width="46.79" height="43.99"/>
		
			<rect x="62.92" y="59.12" style="fill:#92E3A9;stroke:#263238;stroke-linecap:round;stroke-linejoin:round;stroke-miterlimit:10;" width="46.79" height="11.31"/>
		<g>
			<g>
				
					<rect x="66.72" y="76.71" style="fill:#92E3A9;stroke:#263238;stroke-linecap:round;stroke-linejoin:round;stroke-miterlimit:10;" width="5.6" height="5.6"/>
				
					<rect x="75.12" y="76.71" style="fill:#92E3A9;stroke:#263238;stroke-linecap:round;stroke-linejoin:round;stroke-miterlimit:10;" width="5.6" height="5.6"/>
				
					<rect x="83.51" y="76.71" style="fill:#92E3A9;stroke:#263238;stroke-linecap:round;stroke-linejoin:round;stroke-miterlimit:10;" width="5.6" height="5.6"/>
				
					<rect x="91.91" y="76.71" style="fill:#92E3A9;stroke:#263238;stroke-linecap:round;stroke-linejoin:round;stroke-miterlimit:10;" width="5.6" height="5.6"/>
				
					<rect x="100.31" y="76.71" style="fill:#92E3A9;stroke:#263238;stroke-linecap:round;stroke-linejoin:round;stroke-miterlimit:10;" width="5.6" height="5.6"/>
			</g>
			<g>
				
					<rect x="66.72" y="85.51" style="fill:#92E3A9;stroke:#263238;stroke-linecap:round;stroke-linejoin:round;stroke-miterlimit:10;" width="5.6" height="5.6"/>
				
					<rect x="75.12" y="85.51" style="fill:#92E3A9;stroke:#263238;stroke-linecap:round;stroke-linejoin:round;stroke-miterlimit:10;" width="5.6" height="5.6"/>
				
					<rect x="83.51" y="85.51" style="fill:#92E3A9;stroke:#263238;stroke-linecap:round;stroke-linejoin:round;stroke-miterlimit:10;" width="5.6" height="5.6"/>
				
					<rect x="91.91" y="85.51" style="fill:#92E3A9;stroke:#263238;stroke-linecap:round;stroke-linejoin:round;stroke-miterlimit:10;" width="5.6" height="5.6"/>
				
					<rect x="100.31" y="85.51" style="fill:#92E3A9;stroke:#263238;stroke-linecap:round;stroke-linejoin:round;stroke-miterlimit:10;" width="5.6" height="5.6"/>
			</g>
			<g>
				
					<rect x="66.72" y="94.31" style="fill:#92E3A9;stroke:#263238;stroke-linecap:round;stroke-linejoin:round;stroke-miterlimit:10;" width="5.6" height="5.6"/>
				
					<rect x="75.12" y="94.31" style="fill:#92E3A9;stroke:#263238;stroke-linecap:round;stroke-linejoin:round;stroke-miterlimit:10;" width="5.6" height="5.6"/>
				
					<rect x="83.51" y="94.31" style="fill:#92E3A9;stroke:#263238;stroke-linecap:round;stroke-linejoin:round;stroke-miterlimit:10;" width="5.6" height="5.6"/>
				
					<rect x="91.91" y="94.31" style="fill:#92E3A9;stroke:#263238;stroke-linecap:round;stroke-linejoin:round;stroke-miterlimit:10;" width="5.6" height="5.6"/>
				
					<rect x="100.31" y="94.31" style="fill:#92E3A9;stroke:#263238;stroke-linecap:round;stroke-linejoin:round;stroke-miterlimit:10;" width="5.6" height="5.6"/>
			</g>
		</g>
		<g>
			<rect x="69.32" y="51.92" style="fill:#263238;" width="4" height="10.8"/>
			<rect x="79.32" y="51.92" style="fill:#263238;" width="4" height="10.8"/>
			<rect x="89.31" y="51.92" style="fill:#263238;" width="4" height="10.8"/>
			<rect x="99.31" y="51.92" style="fill:#263238;" width="4" height="10.8"/>
		</g>
	</g>
</g>
<g id="Plants">
	<g>
		<path style="fill:#92E3A9;" d="M22.23,387.72c2.17,0.95,7.48,0.83,7.49,0.83c0.05,0-1.14-3.48-1.24-3.69
			c-1.16-2.44-4.85-6.46-7.85-6.06c-2.16,0.29-3.36,2.45-2.87,4.49C18.25,385.37,20.38,386.92,22.23,387.72z"/>
		<path style="fill:#92E3A9;" d="M24.06,403.11c2.25,0.33,6.99-1.05,7.37-1.16c0.75,2.65,1.73,5.31,2.87,7.95
			c0.65,1.51,1.36,3.01,2.08,4.5c-0.43-0.63-0.82-1.2-0.89-1.27c-1.77-2.04-6.38-4.95-9.17-3.77c-2.01,0.85-2.59,3.25-1.59,5.09
			c1.03,1.87,3.49,2.8,5.49,3.09c2.03,0.3,6.09-0.8,7.16-1.1c0.28,0.57,0.56,1.14,0.85,1.71c1.37,2.73,2.75,5.45,4.03,8.16
			c0.45,0.95,0.86,1.91,1.27,2.87c-0.38-0.56-0.71-1.03-0.77-1.1c-1.77-2.04-6.38-4.95-9.17-3.77c-2.01,0.85-2.59,3.25-1.59,5.09
			c1.03,1.87,3.49,2.8,5.49,3.09c1.93,0.28,5.69-0.69,6.97-1.04c0.39,0.99,0.79,1.98,1.12,2.96c0.21,0.67,0.47,1.31,0.64,1.99
			c0.19,0.68,0.38,1.35,0.56,2.01c0.31,1.29,0.64,2.62,0.91,3.89c0.2,0.88,0.36,1.72,0.54,2.57c-0.44-0.96-1.33-2.81-1.42-2.96
			c-1.44-2.29-5.56-5.86-8.49-5.11c-2.11,0.54-3.06,2.82-2.34,4.79c0.73,2.01,3.03,3.29,4.96,3.88c2.12,0.65,6.83,0.06,7.42-0.02
			c0.28,1.41,0.54,2.77,0.77,4.07c0.5,2.86,0.88,5.43,1.17,7.6h1.98c-0.35-2.25-0.8-4.92-1.4-7.92c-0.28-1.43-0.61-2.95-0.96-4.51
			c0.35-0.14,2.36-0.95,4.14-1.95c1.55,1.68,5.52,3.64,6.03,3.89c-0.54,1.33-1.08,2.61-1.61,3.82c-1.1,2.52-2.14,4.76-3.06,6.67
			h2.14c0.79-1.76,1.66-3.76,2.57-5.97c0.55-1.35,1.12-2.8,1.69-4.29c0.57,0.12,5.23,1.06,7.4,0.57c1.97-0.44,4.35-1.56,5.23-3.5
			c0.86-1.9,0.09-4.25-1.98-4.95c-2.87-0.96-7.24,2.29-8.85,4.47c-0.1,0.13-0.97,1.63-1.5,2.59c0.23-0.61,0.46-1.2,0.68-1.83
			c0.46-1.25,0.88-2.51,1.33-3.86c0.2-0.66,0.4-1.33,0.6-2c0.21-0.66,0.36-1.39,0.54-2.1c0.39-1.64,0.71-3.32,0.99-5.01
			c1.09,0.4,5,1.76,7.02,1.61c2.01-0.14,4.54-0.88,5.7-2.67c1.14-1.75,0.73-4.19-1.2-5.19c-2.69-1.39-7.51,1.17-9.42,3.08
			c-0.12,0.12-1.34,1.64-1.99,2.49c0.16-1.02,0.33-2.04,0.45-3.08c0.37-3,0.66-6.05,0.95-9.09c0.09-0.93,0.19-1.86,0.29-2.79
			c0.39,0.15,4.99,1.86,7.26,1.7c2.01-0.14,4.54-0.88,5.7-2.67c1.14-1.75,0.73-4.19-1.2-5.19c-2.69-1.39-7.51,1.17-9.42,3.07
			c-0.14,0.14-1.9,2.34-2.32,2.92c0.22-2.04,0.45-4.08,0.76-6.07c0.43-2.75,1-5.43,1.74-7.99c0.18,0.07,4.98,1.88,7.3,1.72
			c2.01-0.14,4.54-0.88,5.7-2.67c1.14-1.75,0.73-4.19-1.2-5.19c-2.69-1.39-7.51,1.17-9.42,3.08c-0.15,0.15-2.03,2.51-2.35,2.96
			c0.04-0.15,0.07-0.31,0.12-0.46c0.83-2.72,1.98-5.25,3.16-7.56c0.69-1.35,1.42-2.59,2.16-3.79c0.86,0.43,4.81,2.35,6.91,2.43
			c2.02,0.08,4.61-0.38,5.96-2.03c1.33-1.62,1.19-4.09-0.63-5.29c-2.52-1.67-7.59,0.34-9.7,2.02c-0.11,0.09-1.18,1.15-1.94,1.93
			c0.34-0.54,0.69-1.1,1.02-1.6c1.27-1.91,2.54-3.57,3.68-5.04c0.66-0.83,1.27-1.57,1.84-2.25c1.06-0.02,5.34-0.15,7.21-1.03
			c1.83-0.86,3.91-2.46,4.36-4.55c0.43-2.05-0.83-4.17-2.99-4.41c-3.01-0.32-6.58,3.8-7.68,6.27c-0.09,0.21-1.2,3.72-1.14,3.72
			c0,0,0.05,0,0.06,0c-0.57,0.65-1.17,1.35-1.82,2.12c-1.18,1.45-2.49,3.09-3.8,4.98c-1.32,1.88-2.69,3.96-3.95,6.28
			c-1.26,2.33-2.46,4.84-3.37,7.59c-0.01,0.03-0.02,0.06-0.03,0.1c0.02-0.89-0.02-3.37-0.05-3.56c-0.35-2.68-2.59-7.65-5.57-8.2
			c-2.14-0.4-3.96,1.28-4.13,3.37c-0.17,2.13,1.37,4.26,2.87,5.6c1.7,1.52,6.41,2.98,6.78,3.1c-0.84,2.62-1.49,5.39-1.99,8.22
			c-0.29,1.62-0.53,3.26-0.75,4.9c-0.01-0.77-0.03-1.45-0.04-1.55c-0.35-2.68-2.59-7.65-5.57-8.2c-2.14-0.4-3.96,1.28-4.13,3.37
			c-0.17,2.13,1.37,4.26,2.87,5.6c1.53,1.36,5.52,2.7,6.58,3.03c-0.08,0.63-0.16,1.26-0.24,1.9c-0.36,3.04-0.71,6.07-1.14,9.03
			c-0.15,1.04-0.34,2.07-0.53,3.09c-0.01-0.68-0.03-1.25-0.04-1.34c-0.35-2.68-2.59-7.65-5.57-8.2c-2.14-0.4-3.96,1.28-4.13,3.37
			c-0.17,2.13,1.37,4.26,2.87,5.6c1.46,1.3,5.13,2.56,6.39,2.97c-0.22,1.04-0.44,2.09-0.7,3.09c-0.19,0.68-0.33,1.35-0.57,2.02
			c-0.22,0.67-0.43,1.33-0.64,1.99c-0.45,1.25-0.92,2.54-1.39,3.75c-0.32,0.84-0.65,1.64-0.97,2.44c0.16-1.04,0.44-3.08,0.45-3.25
			c0.04-1.79-0.6-4.71-1.86-6.76c0.01-0.26-0.01-0.53-0.05-0.79c-0.33-2.06-2.27-3.6-4.38-3.04c-2.92,0.78-4.78,5.91-4.92,8.61
			c-0.01,0.16,0.1,1.9,0.18,2.99c-0.15-0.64-0.28-1.26-0.44-1.91c-0.31-1.29-0.65-2.57-1.02-3.95c-0.2-0.66-0.4-1.33-0.61-2
			c-0.19-0.67-0.47-1.36-0.71-2.04c-0.58-1.58-1.24-3.16-1.94-4.73c1.13-0.27,5.14-1.29,6.74-2.53c1.6-1.23,3.3-3.24,3.28-5.37
			c-0.02-2.09-1.7-3.9-3.87-3.67c-3.01,0.33-5.62,5.12-6.16,7.76c-0.03,0.17-0.21,2.11-0.29,3.18c-0.43-0.94-0.85-1.88-1.32-2.82
			c-1.34-2.71-2.79-5.41-4.22-8.1c-0.44-0.83-0.87-1.65-1.3-2.48c0.4-0.09,5.19-1.2,6.99-2.58c1.6-1.23,3.3-3.24,3.28-5.37
			c-0.02-2.09-1.7-3.9-3.87-3.66c-3.01,0.33-5.62,5.12-6.16,7.76c-0.04,0.2-0.29,2.99-0.32,3.71c-0.95-1.82-1.87-3.65-2.72-5.49
			c-1.16-2.53-2.17-5.08-2.95-7.63c0.19-0.04,5.19-1.18,7.03-2.59c1.6-1.23,3.3-3.24,3.28-5.37c-0.01-2.09-1.7-3.9-3.87-3.67
			c-3.01,0.33-5.62,5.12-6.16,7.76c-0.04,0.21-0.31,3.22-0.32,3.76c-0.05-0.15-0.11-0.3-0.16-0.45c-0.81-2.73-1.25-5.47-1.53-8.05
			c-0.17-1.5-0.25-2.95-0.29-4.36c0.95-0.12,5.3-0.7,7.1-1.79c1.73-1.05,3.63-2.86,3.85-4.98c0.21-2.08-1.26-4.06-3.44-4.07
			c-3.03-0.01-6.15,4.47-6.98,7.04c-0.05,0.14-0.35,1.61-0.55,2.69c-0.01-0.64-0.03-1.29-0.03-1.9c0-2.29,0.15-4.38,0.29-6.24
			c0.09-1.05,0.19-2,0.3-2.89c0.88-0.6,4.37-3.07,5.45-4.84c1.05-1.72,1.91-4.21,1.12-6.2c-0.77-1.95-2.99-3.03-4.93-2.03
			c-2.69,1.39-3.39,6.8-2.95,9.46c0.04,0.23,1.05,3.76,1.1,3.73c0,0,0.04-0.03,0.05-0.04c-0.12,0.85-0.23,1.77-0.34,2.77
			c-0.18,1.85-0.38,3.95-0.43,6.25c-0.06,2.29-0.06,4.79,0.18,7.42c0.23,2.63,0.61,5.39,1.37,8.19c0.01,0.03,0.02,0.06,0.03,0.09
			c-0.48-0.75-1.88-2.79-2-2.94c-1.77-2.04-6.38-4.95-9.17-3.77c-2.01,0.85-2.59,3.25-1.59,5.09
			C19.6,401.89,22.06,402.81,24.06,403.11z"/>
		<path style="fill:#92E3A9;" d="M75.94,388.89c0.05,0.03,0.97-3.53,1-3.76c0.37-2.68-0.48-8.06-3.21-9.38
			c-1.96-0.95-4.16,0.19-4.87,2.16c-0.73,2.01,0.2,4.47,1.29,6.16C71.44,386.06,75.93,388.89,75.94,388.89z"/>
	</g>
	<g>
		<path style="fill:#92E3A9;" d="M391.34,387.72c2.17,0.95,7.48,0.83,7.49,0.83c0.05,0-1.14-3.48-1.24-3.69
			c-1.16-2.44-4.85-6.46-7.85-6.06c-2.16,0.29-3.36,2.45-2.87,4.49C387.36,385.37,389.49,386.92,391.34,387.72z"/>
		<path style="fill:#92E3A9;" d="M393.17,403.11c2.25,0.33,6.99-1.05,7.37-1.16c0.75,2.65,1.73,5.31,2.87,7.95
			c0.65,1.51,1.36,3.01,2.08,4.5c-0.43-0.63-0.82-1.2-0.89-1.27c-1.77-2.04-6.38-4.95-9.17-3.77c-2.01,0.85-2.59,3.25-1.59,5.09
			c1.03,1.87,3.49,2.8,5.49,3.09c2.03,0.3,6.09-0.8,7.16-1.1c0.28,0.57,0.56,1.14,0.85,1.71c1.37,2.73,2.75,5.45,4.03,8.16
			c0.45,0.95,0.86,1.91,1.27,2.87c-0.38-0.56-0.71-1.03-0.77-1.1c-1.77-2.04-6.38-4.95-9.17-3.77c-2.01,0.85-2.59,3.25-1.59,5.09
			c1.03,1.87,3.49,2.8,5.49,3.09c1.93,0.28,5.69-0.69,6.97-1.04c0.39,0.99,0.78,1.98,1.12,2.96c0.21,0.67,0.47,1.31,0.64,1.99
			c0.19,0.68,0.38,1.35,0.56,2.01c0.31,1.29,0.64,2.62,0.91,3.89c0.2,0.88,0.36,1.72,0.54,2.57c-0.44-0.96-1.33-2.81-1.42-2.96
			c-1.44-2.29-5.56-5.86-8.49-5.11c-2.11,0.54-3.06,2.82-2.34,4.79c0.73,2.01,3.03,3.29,4.96,3.88c2.12,0.65,6.83,0.06,7.42-0.02
			c0.28,1.41,0.54,2.77,0.77,4.07c0.5,2.86,0.89,5.43,1.17,7.6h1.98c-0.35-2.25-0.8-4.92-1.4-7.92c-0.28-1.43-0.61-2.95-0.96-4.51
			c0.35-0.14,2.36-0.95,4.14-1.95c1.55,1.68,5.52,3.64,6.03,3.89c-0.54,1.33-1.08,2.61-1.61,3.82c-1.1,2.52-2.14,4.76-3.06,6.67
			h2.14c0.79-1.76,1.66-3.76,2.57-5.97c0.55-1.35,1.12-2.8,1.69-4.29c0.57,0.12,5.23,1.06,7.4,0.57c1.97-0.44,4.35-1.56,5.23-3.5
			c0.86-1.9,0.09-4.25-1.98-4.95c-2.87-0.96-7.24,2.29-8.85,4.47c-0.1,0.13-0.97,1.63-1.5,2.59c0.23-0.61,0.46-1.2,0.68-1.83
			c0.46-1.25,0.88-2.51,1.33-3.86c0.2-0.66,0.4-1.33,0.6-2c0.21-0.66,0.36-1.39,0.54-2.1c0.39-1.64,0.71-3.32,0.99-5.01
			c1.09,0.4,5,1.76,7.02,1.61c2.01-0.14,4.54-0.88,5.7-2.67c1.14-1.75,0.73-4.19-1.2-5.19c-2.69-1.39-7.51,1.17-9.42,3.08
			c-0.12,0.12-1.34,1.64-1.99,2.49c0.16-1.02,0.33-2.04,0.45-3.08c0.37-3,0.66-6.05,0.95-9.09c0.09-0.93,0.19-1.86,0.29-2.79
			c0.39,0.15,4.99,1.86,7.26,1.7c2.01-0.14,4.54-0.88,5.7-2.67c1.14-1.75,0.73-4.19-1.2-5.19c-2.69-1.39-7.51,1.17-9.42,3.07
			c-0.14,0.14-1.9,2.34-2.32,2.92c0.22-2.04,0.45-4.08,0.76-6.07c0.43-2.75,1-5.43,1.74-7.99c0.18,0.07,4.98,1.88,7.3,1.72
			c2.01-0.14,4.54-0.88,5.7-2.67c1.14-1.75,0.73-4.19-1.2-5.19c-2.69-1.39-7.51,1.17-9.42,3.08c-0.15,0.15-2.03,2.51-2.35,2.96
			c0.04-0.15,0.07-0.31,0.12-0.46c0.83-2.72,1.98-5.25,3.16-7.56c0.69-1.35,1.42-2.59,2.16-3.79c0.86,0.43,4.81,2.35,6.91,2.43
			c2.02,0.08,4.61-0.38,5.96-2.03c1.33-1.62,1.19-4.09-0.63-5.29c-2.52-1.67-7.59,0.34-9.7,2.02c-0.11,0.09-1.18,1.15-1.94,1.93
			c0.34-0.54,0.69-1.1,1.02-1.6c1.27-1.91,2.54-3.57,3.68-5.04c0.66-0.83,1.27-1.57,1.84-2.25c1.06-0.02,5.34-0.15,7.21-1.03
			c1.83-0.86,3.91-2.46,4.36-4.55c0.43-2.05-0.83-4.17-2.99-4.41c-3.01-0.32-6.58,3.8-7.68,6.27c-0.09,0.21-1.2,3.72-1.14,3.72
			c0,0,0.05,0,0.06,0c-0.57,0.65-1.17,1.35-1.82,2.12c-1.18,1.45-2.49,3.09-3.8,4.98c-1.32,1.88-2.69,3.96-3.95,6.28
			c-1.26,2.33-2.46,4.84-3.37,7.59c-0.01,0.03-0.02,0.06-0.03,0.1c0.02-0.89-0.02-3.37-0.05-3.56c-0.35-2.68-2.59-7.65-5.57-8.2
			c-2.14-0.4-3.96,1.28-4.13,3.37c-0.17,2.13,1.37,4.26,2.87,5.6c1.7,1.52,6.41,2.98,6.78,3.1c-0.84,2.62-1.49,5.39-1.99,8.22
			c-0.29,1.62-0.53,3.26-0.75,4.9c-0.01-0.77-0.03-1.45-0.04-1.55c-0.35-2.68-2.59-7.65-5.57-8.2c-2.14-0.4-3.96,1.28-4.13,3.37
			c-0.17,2.13,1.37,4.26,2.87,5.6c1.53,1.36,5.52,2.7,6.58,3.03c-0.08,0.63-0.16,1.26-0.24,1.9c-0.36,3.04-0.71,6.07-1.14,9.03
			c-0.15,1.04-0.34,2.07-0.53,3.09c-0.01-0.68-0.03-1.25-0.04-1.34c-0.35-2.68-2.59-7.65-5.57-8.2c-2.14-0.4-3.96,1.28-4.13,3.37
			c-0.17,2.13,1.37,4.26,2.87,5.6c1.46,1.3,5.13,2.56,6.39,2.97c-0.22,1.04-0.44,2.09-0.7,3.09c-0.19,0.68-0.33,1.35-0.57,2.02
			c-0.22,0.67-0.43,1.33-0.64,1.99c-0.45,1.25-0.92,2.54-1.39,3.75c-0.32,0.84-0.65,1.64-0.97,2.44c0.16-1.04,0.44-3.08,0.45-3.25
			c0.04-1.79-0.6-4.71-1.86-6.76c0.01-0.26-0.01-0.53-0.05-0.79c-0.33-2.06-2.27-3.6-4.38-3.04c-2.92,0.78-4.78,5.91-4.92,8.61
			c-0.01,0.16,0.1,1.9,0.18,2.99c-0.15-0.64-0.28-1.26-0.44-1.91c-0.31-1.29-0.65-2.57-1.02-3.95c-0.2-0.66-0.4-1.33-0.61-2
			c-0.19-0.67-0.47-1.36-0.71-2.04c-0.58-1.58-1.24-3.16-1.94-4.73c1.13-0.27,5.14-1.29,6.74-2.53c1.6-1.23,3.3-3.24,3.28-5.37
			c-0.02-2.09-1.7-3.9-3.87-3.67c-3.01,0.33-5.62,5.12-6.16,7.76c-0.03,0.17-0.21,2.11-0.29,3.18c-0.43-0.94-0.85-1.88-1.32-2.82
			c-1.34-2.71-2.79-5.41-4.22-8.1c-0.44-0.83-0.87-1.65-1.3-2.48c0.4-0.09,5.19-1.2,6.99-2.58c1.6-1.23,3.3-3.24,3.28-5.37
			c-0.01-2.09-1.7-3.9-3.87-3.66c-3.01,0.33-5.62,5.12-6.16,7.76c-0.04,0.2-0.29,2.99-0.32,3.71c-0.95-1.82-1.87-3.65-2.72-5.49
			c-1.16-2.53-2.17-5.08-2.95-7.63c0.19-0.04,5.19-1.18,7.03-2.59c1.6-1.23,3.3-3.24,3.28-5.37c-0.01-2.09-1.7-3.9-3.87-3.67
			c-3.01,0.33-5.62,5.12-6.16,7.76c-0.04,0.21-0.31,3.22-0.32,3.76c-0.05-0.15-0.11-0.3-0.16-0.45c-0.81-2.73-1.25-5.47-1.53-8.05
			c-0.17-1.5-0.25-2.95-0.29-4.36c0.95-0.12,5.3-0.7,7.1-1.79c1.73-1.05,3.63-2.86,3.85-4.98c0.21-2.08-1.26-4.06-3.44-4.07
			c-3.03-0.01-6.15,4.47-6.98,7.04c-0.05,0.14-0.35,1.61-0.55,2.69c-0.01-0.64-0.03-1.29-0.03-1.9c0-2.29,0.15-4.38,0.29-6.24
			c0.09-1.05,0.19-2,0.3-2.89c0.88-0.6,4.37-3.07,5.45-4.84c1.05-1.72,1.91-4.21,1.12-6.2c-0.77-1.95-2.99-3.03-4.93-2.03
			c-2.69,1.39-3.39,6.8-2.95,9.46c0.04,0.23,1.05,3.76,1.1,3.73c0,0,0.04-0.03,0.05-0.04c-0.12,0.85-0.23,1.77-0.34,2.77
			c-0.18,1.85-0.38,3.95-0.43,6.25c-0.06,2.29-0.06,4.79,0.18,7.42c0.23,2.63,0.61,5.39,1.37,8.19c0.01,0.03,0.02,0.06,0.03,0.09
			c-0.48-0.75-1.88-2.79-2-2.94c-1.77-2.04-6.38-4.95-9.17-3.77c-2.01,0.85-2.59,3.25-1.59,5.09
			C388.71,401.89,391.17,402.81,393.17,403.11z"/>
		<path style="fill:#92E3A9;" d="M445.05,388.89c0.05,0.03,0.97-3.53,1-3.76c0.37-2.68-0.48-8.06-3.21-9.38
			c-1.96-0.95-4.16,0.19-4.87,2.16c-0.73,2.01,0.2,4.47,1.29,6.16C440.55,386.06,445.04,388.89,445.05,388.89z"/>
	</g>
</g>
<g id="Characters">
	<g>
		<g>
			<path style="fill:#263238;stroke:#263238;stroke-linecap:round;stroke-linejoin:round;stroke-miterlimit:10;" d="M349.33,179.57
				c0,0,0.31-11.29,6.82-14.49c6.51-3.21,6.88,7.37,6.88,7.37s14.9-9.46,18.13-2.29c3.23,7.17-1.28,10.64-1.28,10.64
				s13.23-0.46,14.14,6.79c0.91,7.25-5.91,10.8-5.91,10.8s8.18,6.67,5.31,9.75c-2.87,3.08-9.15,3.3-9.15,3.3s3.56,7.16-2.64,9.69
				c-6.2,2.53-13.32-2.18-13.32-2.18s1.11,3.27-3.56,2.44c-4.66-0.83-9.37-2.98-12.26-9.83
				C349.58,204.7,345.85,185.34,349.33,179.57z"/>
			<g>
				<path style="fill:#BDBDBD;stroke:#263238;stroke-miterlimit:10;" d="M280.6,397.62c0,0-3.71,14.16-3.66,15.73
					c0.05,1.58-1.22,5.13-0.14,6.14c1.09,1.01,5.94,4.35,6.47,4.51c0.53,0.16,2.09-0.42,2.6-0.79c0.51-0.37,0.83-1.26,0.81-1.78
					c-0.02-0.53-1.5-2.75-1.69-3.27c-0.19-0.52,2.73-7.28,3.84-10.65c1.11-3.37,1.78-9.18,1.78-9.18L280.6,397.62z"/>
				<path style="fill:#BDBDBD;stroke:#263238;stroke-miterlimit:10;" d="M284.62,407.48c0,0-2.11,4.98-2.25,5.86
					c-0.14,0.88-3.04,3.26-2.62,5.18c0.42,1.91,4.61,1.42,6.69-4.27"/>
			</g>
			<path style="fill:#92E3A9;stroke:#263238;stroke-miterlimit:10;" d="M294.07,320.7c0,0-1.77,28.88-2.44,31.43
				c-0.67,2.55-8.71,25.84-10.48,32.98s-2.31,13.48-2.31,13.48l10.8,2.27l6.05-26.62c0,0,7.92-24.22,6.34-35.61
				C300.45,327.23,294.07,320.7,294.07,320.7z"/>
			<g>
				<path style="fill:#92E3A9;stroke:#263238;stroke-miterlimit:10;" d="M350.28,457.13c0.12-6.28,0.39-14.75,0.95-19.6
					c0.97-8.38,4.58-13.56,8.26-24.05c3.68-10.49,3.96-24.16,3.96-24.16l-65.9,2.3c0,0-7.61,28.33-12.19,49.22
					c-1.54,7-2.1,12.31-2.18,16.29"/>
				<polygon style="fill:#263238;stroke:#263238;stroke-linecap:round;stroke-linejoin:round;stroke-miterlimit:10;" points="
					306.27,402.29 361.1,403.84 362.26,399.59 				"/>
				<path style="fill:#FFFFFF;stroke:#263238;stroke-miterlimit:10;" d="M303.5,456.13c0,0-1.08-34.29-1.11-52.89"/>
			</g>
			<g>
				<path style="fill:#92E3A9;stroke:#263238;stroke-miterlimit:10;" d="M345.53,248.16l8,5.38c0,0,9.45,8.47,11.81,15.44
					c2.36,6.96,0.64,48.58-1.71,62.04c-2.35,13.46,3.52,30.16,5.61,39.6c2.09,9.44,3.05,27.01,3.05,27.01s1.48,2.06-24.2,2.96
					c-25.68,0.9-43.59,2.22-45.69,2.65c-2.1,0.43-3.86,0.49-3.86,0.49l-1.02-9.12l-2.56,7.48l-5.32-1.22c0,0,3.3-16.31,4.14-22.68
					c0.83-6.37,6.07-28.03,6.14-36.13c0.07-8.1-6.73-21.25-8.06-29.3s1.35-21.88,8.03-32.33c6.68-10.45,11.12-14.47,24.13-25.14
					C337.01,244.61,345.53,248.16,345.53,248.16z"/>
				<polyline style="fill:none;stroke:#263238;stroke-miterlimit:10;" points="324.69,370.02 351.52,373.05 350.01,366.03 
					333.27,364.59 				"/>
				<polyline style="fill:none;stroke:#263238;stroke-miterlimit:10;" points="315.31,364.2 313.95,368.8 320.68,369.56 				"/>
				<path style="fill:none;stroke:#263238;stroke-miterlimit:10;" d="M325.38,318.23c-1.4-1.34-2.64-2.67-3.46-3.81"/>
				<path style="fill:none;stroke:#263238;stroke-miterlimit:10;" d="M334.71,326.11c0,0-2.83-2.14-5.93-4.8"/>
			</g>
			<path style="fill:#92E3A9;stroke:#263238;stroke-miterlimit:10;" d="M345.53,248.16c0,0-8.51-3.55-21.52,7.12
				c-13.01,10.67-17.45,14.69-24.13,25.14c-4.13,6.47-6.74,14.23-7.8,21.11c0.16,0.78,0.33,1.57,0.52,2.38
				c3.72,15.72,7.86,23.32,7.86,23.32s7.2-35.82,19.73-50.34c12.52-14.52,33.35-23.35,33.35-23.35L345.53,248.16z"/>
			<path style="fill:#BDBDBD;stroke:#263238;stroke-miterlimit:10;" d="M314.26,178.29c0,0-9.39,8.77-10.09,15.68
				c-0.7,6.91-1.43,12.87-2.6,15.1c-1.17,2.23-7.07,3.69-5.07,7.06c1.99,3.37,3.87,3.31,3.87,3.31s3.02,14.91,5.28,17.02
				c2.26,2.11,10.35,0.89,10.35,0.89l2.49,18.08c0,0-16.78,14.89-20.05,35.64c-3.27,20.74,0.47,32.59,0.47,32.59
				s2.19-32.68,9.75-44.93c7.56-12.24,25.12-23.83,27.71-25.92c2.59-2.09,9.15-4.64,9.15-4.64s-3.12-7.04-3.54-10.16
				c-0.42-3.11-0.27-7.81,0.31-9.08c0.58-1.27,11.08-5.08,15.04-17.1c3.96-12.02-1.85-26.21-8-32.25
				C343.18,173.53,322.12,170.51,314.26,178.29z"/>
			<path style="fill:#263238;stroke:#263238;stroke-linecap:round;stroke-linejoin:round;stroke-miterlimit:10;" d="M357.34,211.82
				c3.96-12.02-1.85-26.21-8-32.25c-6.15-6.04-27.21-9.06-35.07-1.28c0,0-0.5,0.47-1.28,1.27c1.62-0.43,4.84-1,9.13-0.3
				c6.29,1.03,6.15,6.04,4.44,10.79c-1.71,4.75-0.43,5.64,2.78,8.03c3.21,2.39-0.07,6.88,2.18,8.68c2.25,1.8,4.1-7.96,9.04-0.94
				s1.61,10.27-1.45,12.25c-3.06,1.98-5.54,2.7-5.54,2.7s4.64,5.43,9.2,7.67C344.94,226.79,353.78,222.62,357.34,211.82z"/>
			<g>
				<path style="fill:none;stroke:#263238;stroke-miterlimit:10;" d="M305.46,222.07c0,0,6.55-0.54,9.57-3.46"/>
				<path style="fill:#263238;" d="M309.62,206.6c0.05,1.55-0.53,2.83-1.31,2.86c-0.78,0.03-1.45-1.21-1.5-2.76s0.53-2.83,1.31-2.86
					C308.89,203.81,309.56,205.05,309.62,206.6z"/>
				<path style="fill:none;stroke:#263238;stroke-miterlimit:10;" d="M306.8,200.27c0,0,2.11-2.84,5.13,0.51"/>
			</g>
			<polygon style="fill:#263238;stroke:#263238;stroke-miterlimit:10;" points="316,237.34 323.81,234.4 318.37,244.17 			"/>
			<polygon style="fill:#FFFFFF;stroke:#263238;stroke-miterlimit:10;" points="293.51,380.87 283.27,424 292.46,426.14 
				297.52,394.6 			"/>
			<path style="fill:#FFFFFF;stroke:#263238;stroke-miterlimit:10;" d="M302.56,277.61c-1.85,4.09-3.35,8.61-4.12,13.45
				c-3.27,20.74,0.47,32.59,0.47,32.59s2.16-32.24,9.6-44.67C306.17,278.7,304.19,278.2,302.56,277.61z"/>
		</g>
		<g>
			<path style="fill:#92E3A9;stroke:#263238;stroke-miterlimit:10;" d="M334.2,291.07l-0.7,36.6l-64.05,10.56l1.41,17.25
				c0,0,35.55,0.7,52.09-0.7s30.97-2.46,33.08-4.22c2.11-1.76,8.11-35.78,10.57-59.71c2.46-23.93-2.46-32.03-12.32-30.62"/>
			<g>
				<path style="fill:#FFFFFF;stroke:#263238;stroke-miterlimit:10;" d="M231.13,336.68l-5.12,15.56l5.04,2.72
					c0,0,6.35,4.92,9.83,7.58c3.48,2.66,6.14,2.66,7.99,1.84c1.84-0.82,10.24-12.7,11.26-14.95c1.02-2.25-3.89-9.01-8.81-11.88
					s-9.01-2.87-11.88-2.05C236.58,336.33,231.13,336.68,231.13,336.68z"/>
				<path style="fill:#BDBDBD;stroke:#263238;stroke-miterlimit:10;" d="M269.45,338.23l-8.09-0.7c0,0-5.63-1.41-7.74-1.41
					s-4.93,2.11-6.34,3.17c-1.41,1.06-16.89,17.95-16.89,17.95s1.41,2.82,3.52,2.11c2.11-0.7,5.98-2.46,5.98-2.46
					s-4.22,4.22-2.11,6.33c2.11,2.11,5.63,2.11,5.63,2.11l2.46-1.41c0,0,1.76,1.41,3.52,1.76c1.76,0.35,4.58-0.35,7.04-1.76
					c2.46-1.41,8.7-8.75,8.7-8.75l5.41-2.09L269.45,338.23z"/>
				<path style="fill:#FFFFFF;stroke:#263238;stroke-miterlimit:10;" d="M233.92,337.35c0,0,10.24-5.94,14.75-4.3
					c4.51,1.64,10.44,11.67,8.81,13.11c-1.64,1.43-4.3,0.82-5.73-0.61c-1.43-1.43-3.89-2.87-3.89-2.87s-4.1,2.46-8.81,2.46"/>
				<g>
					<path style="fill:#FFFFFF;stroke:#263238;stroke-miterlimit:10;" d="M264.46,360.6l-3.25-1.74c-1.1-0.59-1.51-1.95-0.93-3.05
						l0,0c0.59-1.1,1.95-1.51,3.05-0.93l3.25,1.74c1.1,0.59,1.51,1.95,0.93,3.05l0,0C266.92,360.77,265.55,361.18,264.46,360.6z"/>
					<path style="fill:#FFFFFF;stroke:#263238;stroke-miterlimit:10;" d="M261.59,364.08l-3.25-1.74c-1.1-0.59-1.51-1.95-0.93-3.05
						l0,0c0.59-1.1,1.95-1.51,3.05-0.93l3.25,1.74c1.1,0.59,1.51,1.95,0.93,3.05l0,0C264.05,364.25,262.69,364.67,261.59,364.08z"/>
					<path style="fill:#FFFFFF;stroke:#263238;stroke-miterlimit:10;" d="M258.31,367.15l-3.25-1.74c-1.1-0.59-1.51-1.95-0.93-3.05
						l0,0c0.59-1.1,1.95-1.51,3.05-0.93l3.25,1.74c1.1,0.59,1.51,1.95,0.93,3.05l0,0C260.78,367.32,259.41,367.74,258.31,367.15z"/>
					<path style="fill:#FFFFFF;stroke:#263238;stroke-miterlimit:10;" d="M251.41,367.3l-0.85-0.46c-1.1-0.59-1.51-1.95-0.93-3.05
						l0,0c0.59-1.1,1.95-1.51,3.05-0.93l0.85,0.46c1.1,0.59,1.51,1.95,0.93,3.05h0C253.87,367.48,252.51,367.89,251.41,367.3z"/>
				</g>
			</g>
		</g>
		<g>
			<polygon style="fill:#263238;stroke:#263238;stroke-linecap:round;stroke-linejoin:round;stroke-miterlimit:10;" points="
				231.13,336.68 188.15,318.51 189.74,346.97 225.23,355.11 			"/>
			<polygon style="fill:#FFFFFF;stroke:#263238;stroke-miterlimit:10;" points="225.23,355.11 231.13,336.68 225.12,334.02 
				225.01,334.63 219.5,353.72 			"/>
		</g>
		<g>
			<g>
				<g>
					<path style="fill:#FFFFFF;stroke:#263238;stroke-linecap:round;stroke-linejoin:round;stroke-miterlimit:10;" d="M164.04,222.8
						l11.02,5.12c0,0,4.62,13.09,3.08,13.47c-1.54,0.38-13.09-8.85-13.09-8.85L164.04,222.8z"/>
					<path style="fill:#FFFFFF;stroke:#263238;stroke-linecap:round;stroke-linejoin:round;stroke-miterlimit:10;" d="
						M170.39,220.18l0.77-4.41c0,0,10.2,0.7,14.28,0.68s7.64-0.56,7.61-4.89c-0.03-4.33-2.41-19.1-2.41-19.1s4.58-1.05,6.35-3.1
						c1.77-2.05-0.79-4.58-3.11-7.63c-2.31-3.04-4.37-6.34-4.65-9.91c-0.28-3.57-6.47-15.25-6.47-15.25s1.01-1.79-2.33-5.59
						c-3.34-3.8-20.41-4.46-31.34,0.96c-10.92,5.42-13.42,13.34-13.37,22c0.05,8.66,4.97,20.87,4.97,20.87s-3.23,13.27-3.48,14.04
						c-0.25,0.77-3.14,6.41-3.14,6.41s13.66,9.54,18.66,13.81c5,4.28,16.25,11.6,16.32,7.65c0.07-3.96,0.52-12.91,0.52-12.91
						L170.39,220.18z"/>
					<path style="fill:#263238;" d="M185.46,178.82c0.07,1.48-0.28,2.69-0.77,2.71c-0.49,0.02-0.94-1.16-1.01-2.63
						c-0.07-1.48,0.28-2.69,0.77-2.71C184.94,176.17,185.39,177.34,185.46,178.82z"/>
					<path style="fill:none;stroke:#263238;stroke-width:2;stroke-linecap:round;stroke-linejoin:round;stroke-miterlimit:10;" d="
						M178.29,173.93c0,0,2.27-3.84,8.15-1.58"/>
				</g>
				<path style="fill:#263238;stroke:#263238;stroke-linecap:round;stroke-linejoin:round;stroke-miterlimit:10;" d="M193.05,211.56
					c-0.03-4.33-2.41-19.1-2.41-19.1s-2.81-1.51-8.16-0.2c-5.34,1.31-6.82,9.98-7.83,11.01c-1.01,1.03-7.68-5.05-10.25-9.11
					c-2.57-4.06-4.4-11.19-4.68-15.26c-0.28-4.08,9.39-6.17,10.9-10.01c1.51-3.83-5.66-7.87-3.12-10.43
					c2.53-2.56,7.64-1.58,10.19-1.08c2.55,0.49,5.09-0.8,5.09-0.8s1.01-1.79-2.33-5.59c-3.34-3.8-20.41-4.46-31.34,0.96
					c-10.92,5.42-13.42,13.34-13.37,22c0.04,7.02,3.28,16.36,4.51,19.66c0.98,0.35,2.58,0.86,3.26,0.68
					c1.02-0.26,1.76-3.32,2.25-6.38c0.49-3.06,7.86-6.67,7.86-6.67s1.33,9.17,1.34,10.95c0.01,1.78-0.95,10.71,3.92,15.01
					c4.87,4.3,12.29,8.59,12.29,8.59s10.2,0.7,14.28,0.68S193.08,215.89,193.05,211.56z"/>
				<path style="fill:#FFFFFF;stroke:#263238;stroke-linecap:round;stroke-linejoin:round;stroke-miterlimit:10;" d="M155.19,187.58
					c0,0-2.11-12.22-5.68-11.69c-3.56,0.53-5.57,5.13-3.75,10.98c1.82,5.85,5.38,5.32,7.42,4.8"/>
				<path style="fill:none;stroke:#FFFFFF;stroke-linecap:round;stroke-linejoin:round;stroke-miterlimit:10;" d="M180.22,196.85
					c0,0,2.05,2.54,7.41,2.5"/>
			</g>
			<path style="fill:#263238;stroke:#263238;stroke-linecap:round;stroke-linejoin:round;stroke-miterlimit:10;" d="M122.96,457.13
				h53.99c0.19-2.84,2.28-13.76,2.28-20.92c0-8.28,5.69-61.62,5.69-61.62l-70.23-0.92l2.3,32.65L122.96,457.13z"/>
			<path style="fill:#263238;stroke:#263238;stroke-linecap:round;stroke-linejoin:round;stroke-miterlimit:10;" d="M130.03,217.13
				c0,0-12.32,15.78-15.78,24.63c-3.46,8.85-6.16,10.39-5.39,21.55c0.77,11.16,6.16,55.81,6.16,55.81l-10.78,58.12
				c0,0,17.32,6.93,39.65,6.93s31.95-1.92,33.49-2.69c1.54-0.77,15.01-4.23,15.01-4.23s0-65.82-4.23-88.53
				c-4.23-22.71-9.62-40.03-11.55-44.26c-1.92-4.23-8.08-18.09-8.08-18.09L130.03,217.13z"/>
			<path style="fill:#263238;stroke:#263238;stroke-linecap:round;stroke-linejoin:round;stroke-miterlimit:10;" d="M176.61,244.46
				c-1.92-4.23-8.08-18.09-8.08-18.09l-38.49-9.24c0,0-2.6,3.34-5.75,7.8c8.39,4.88,29.16,16.91,30.39,17.22
				c1.54,0.38,9.24-0.39,9.24-0.39l-3.46,4.23c0,0,9.24,7.31,12.32,10.39c1.62,1.62,6.32,5.9,10.42,9.59
				C180.39,254.93,177.81,247.12,176.61,244.46z"/>
			<polygon style="fill:#FFFFFF;stroke:#263238;stroke-linecap:round;stroke-linejoin:round;stroke-miterlimit:10;" points="
				158.9,234.84 171.99,245.23 182.77,264.48 175.84,236.38 161.6,228.3 			"/>
			<polygon style="fill:#FFFFFF;stroke:#263238;stroke-linecap:round;stroke-linejoin:round;stroke-miterlimit:10;" points="
				132.73,209.82 173.03,227.98 173.03,242.22 126.95,218.67 			"/>
			<g>
				<rect x="116.38" y="355.49" style="fill:#92E3A9;stroke:#263238;stroke-miterlimit:10;" width="69.64" height="56.35"/>
				<path style="fill:#FFFFFF;stroke:#263238;stroke-linecap:round;stroke-linejoin:round;stroke-miterlimit:10;" d="M155.47,382.35
					c0,0,5.18,6.75,7.2,7.43c2.03,0.68,3.15,2.25,4.05,3.6c0.9,1.35,2.03,11.48,2.7,12.16c0.68,0.68,0.68,2.25-1.8,1.13
					c-2.48-1.13-4.05-4.95-4.05-4.95l0.9,9.01c0,0,2.03,0.45,0.45,1.58c-1.58,1.13-2.93,2.7-4.28,2.03
					c-1.35-0.68-3.38-2.48-3.38-2.48s-2.48,0.9-4.95,0.45c-2.48-0.45-2.03,0.45-4.28-1.13c-2.25-1.58-2.25,0.23-3.38-2.7
					c-1.13-2.93-3.83-13.06-4.28-15.98c-0.45-2.93-0.9-6.98-0.9-6.98L155.47,382.35z"/>
				<polygon style="fill:#FFFFFF;stroke:#263238;stroke-linecap:round;stroke-linejoin:round;stroke-miterlimit:10;" points="
					156.38,378.07 157.95,385.05 138.59,387.75 137.69,380.77 				"/>
				<path style="fill:#263238;stroke:#263238;stroke-linecap:round;stroke-linejoin:round;stroke-miterlimit:10;" d="M131.57,230.99
					c0,0-13.47,4.23-13.86,10.39c-0.38,6.16-4.85,80.86-2.92,85.87c1.92,5,20.87,55.67,20.87,55.67l21.94-2.69
					c0,0-11.25-58.75-11.63-59.91c-0.38-1.15,7.54-66.62,7.54-66.62"/>
				<g>
					<polyline style="fill:none;stroke:#878787;stroke-linecap:round;stroke-linejoin:round;stroke-miterlimit:10;" points="
						150.93,272.5 145.97,320.32 150.7,350.03 					"/>
					
						<line style="fill:none;stroke:#878787;stroke-linecap:round;stroke-linejoin:round;stroke-miterlimit:10;" x1="151.69" y1="265.18" x2="151.43" y2="267.72"/>
					
						<line style="fill:none;stroke:#878787;stroke-linecap:round;stroke-linejoin:round;stroke-miterlimit:10;" x1="116.17" y1="257.78" x2="114.69" y2="302.68"/>
					<polyline style="fill:none;stroke:#878787;stroke-linecap:round;stroke-linejoin:round;stroke-miterlimit:10;" points="
						166.49,342.19 181.29,341.65 182.62,346.97 158.1,348.55 					"/>
					
						<line style="fill:none;stroke:#878787;stroke-linecap:round;stroke-linejoin:round;stroke-miterlimit:10;" x1="154.16" y1="342.63" x2="162.04" y2="342.35"/>
					<polyline style="fill:none;stroke:#878787;stroke-linecap:round;stroke-linejoin:round;stroke-miterlimit:10;" points="
						127.52,226.21 154.67,242.15 163.91,241.77 160.44,246 178.33,260.25 					"/>
				</g>
			</g>
		</g>
	</g>
</g>
<g id="Table">
	<line style="fill:none;stroke:#263238;stroke-miterlimit:10;" x1="11.48" y1="457.13" x2="467.97" y2="457.13"/>
</g>
<g id="Lines_1">
	<g>
		<line style="fill:none;stroke:#263238;stroke-miterlimit:10;" x1="140.49" y1="45.02" x2="140.49" y2="112.61"/>
		<line style="fill:none;stroke:#263238;stroke-miterlimit:10;" x1="244.31" y1="45.02" x2="244.31" y2="112.61"/>
		<line style="fill:none;stroke:#263238;stroke-miterlimit:10;" x1="348.13" y1="45.02" x2="348.13" y2="112.61"/>
	</g>
</g>
</svg>
