<?xml version="1.0" encoding="utf-8"?>
<!-- Generator: Adobe Illustrator 25.2.0, SVG Export Plug-In . SVG Version: 6.00 Build 0)  -->
<svg version="1.1" xmlns="http://www.w3.org/2000/svg" xmlns:xlink="http://www.w3.org/1999/xlink" x="0px" y="0px"
	 viewBox="0 0 750 500" style="enable-background:new 0 0 750 500;" xml:space="preserve">
<style type="text/css">
	.st0{fill:#92E3A9;}
	.st1{opacity:0.8;fill:#FFFFFF;}
	.st2{fill:none;stroke:#263238;stroke-linecap:round;stroke-linejoin:round;stroke-miterlimit:10;}
	.st3{fill:#FFFFFF;stroke:#263238;stroke-linecap:round;stroke-linejoin:round;stroke-miterlimit:10;}
	.st4{fill:#92E3A9;stroke:#263238;stroke-linecap:round;stroke-linejoin:round;stroke-miterlimit:10;}
	.st5{fill:#263238;stroke:#263238;stroke-linecap:round;stroke-linejoin:round;stroke-miterlimit:10;}
	.st6{fill:#BDBDBD;}
	.st7{fill:#BDBDBD;stroke:#263238;stroke-linecap:round;stroke-linejoin:round;stroke-miterlimit:10;}
	.st8{fill:#263238;}
	.st9{fill:#616161;stroke:#263238;stroke-linecap:round;stroke-linejoin:round;stroke-miterlimit:10;}
</style>
<g id="Background_Simple">
	<g>
		<path class="st0" d="M689.1,140.9c0,0-63.5-102.1-220.1-122.5s-185.1,63.4-216.8,92.4c-31.8,29-86.5,23.6-170.8,79.5
			S-1.9,308.5,22.2,368.6C46.3,428.8,129.5,481.4,228.1,489c98.6,7.5,148.9-37.6,228.9-36.5c79.9,1.1,147.8,33.3,211.3,8.6
			C731.8,436.3,777.8,237.6,689.1,140.9z"/>
		<path class="st1" d="M689.1,140.9c0,0-63.5-102.1-220.1-122.5s-185.1,63.4-216.8,92.4c-31.8,29-86.5,23.6-170.8,79.5
			S-1.9,308.5,22.2,368.6C46.3,428.8,129.5,481.4,228.1,489c98.6,7.5,148.9-37.6,228.9-36.5c79.9,1.1,147.8,33.3,211.3,8.6
			C731.8,436.3,777.8,237.6,689.1,140.9z"/>
	</g>
</g>
<g id="Clock">
	<g>
		<path class="st2" d="M465.4,60.7c7.6-7.8,18.2-12.6,29.9-12.6c23.1,0,41.8,18.7,41.8,41.8s-18.7,41.8-41.8,41.8
			c-23.1,0-41.8-18.7-41.8-41.8c0-8.3,2.4-16.1,6.7-22.6"/>
		<path class="st2" d="M526.9,109c-6.5,10.7-18.2,17.8-31.6,17.8c-20.4,0-36.9-16.5-36.9-36.9s16.5-36.9,36.9-36.9
			c20.4,0,36.9,16.5,36.9,36.9c0,4.2-0.7,8.3-2,12.1"/>
		<polyline class="st2" points="476,89.8 495.3,89.8 492.2,120.8 		"/>
	</g>
</g>
<g id="Window">
	<g>
		<polyline class="st2" points="276.3,120.8 276.3,193.2 159.5,193.2 159.5,44.2 276.3,44.2 276.3,110 		"/>
		<polyline class="st2" points="407.1,109.2 407.1,193.2 290.3,193.2 290.3,44.2 407.1,44.2 407.1,99.9 		"/>
		<rect x="159.5" y="202.3" class="st2" width="116.8" height="149"/>
		<polyline class="st2" points="338.2,202.3 407.1,202.3 407.1,351.4 290.3,351.4 290.3,202.3 325.1,202.3 		"/>
	</g>
</g>
<g id="Table_00000091731658332630682020000010421244356704505991_">
	<g>
		<g>
			<rect x="257.8" y="403" class="st3" width="21.1" height="37.8"/>
			<rect x="272.1" y="403" class="st3" width="21.1" height="37.8"/>
		</g>
		<g>
			<rect x="432.7" y="403" class="st3" width="21.1" height="37.8"/>
			<rect x="447" y="403" class="st3" width="21.1" height="37.8"/>
		</g>
		<polyline class="st3" points="649.3,403 233.2,403 233.2,391.8 659.7,391.8 		"/>
		<polyline class="st3" points="725.4,391.8 501.9,391.8 501.9,403 721.5,403 		"/>
		<g>
			<rect x="495.9" y="403" class="st3" width="21.1" height="37.8"/>
			<rect x="510.3" y="403" class="st3" width="21.1" height="37.8"/>
		</g>
	</g>
</g>
<g id="Mug">
	<g>
		<g>
			<rect x="601.9" y="339" class="st4" width="39.5" height="52.7"/>
			<path class="st4" d="M628.6,351c1.5-1.1,3.9-2.2,6.8-1.4c5,1.4,6,13.8,4.6,22.9c-1.1,7.3-7.2,9.2-11.2,7.2"/>
			<path class="st4" d="M628.5,359.2c0,0,2.9-5.9,4.4-4.2c1.5,1.7,1.7,13.6,1.2,16.8s-3.5,4.3-5.2,2"/>
		</g>
		<g>
			<path class="st2" d="M636.8,301.5c0.8-2.5,1.3-5.4,1.3-8.7"/>
			<path class="st2" d="M613,331.8c0.9-2.5,2.5-5.5,5.5-8.7c5.5-5.8,12.6-10.3,16.6-17.6"/>
			<path class="st2" d="M612.3,338.7c0,0-0.4-1.6,0-4.1"/>
			<path class="st2" d="M639.5,319.1c3.8-4.3,6.2-9.7,6.2-16.1"/>
			<path class="st2" d="M623.9,334.7c0,0-0.4-4,7.6-8.9c2-1.2,4-2.7,5.7-4.3"/>
		</g>
	</g>
</g>
<g id="Plant">
	<g>
		<path class="st5" d="M320.6,348.5c0,0-1.4-10.6-5.1-21.6c-3.8-11-14.7-23.3-14.7-23.3s9.2,7.9,13,14.4c3.8,6.5,6.5,18.2,6.5,18.2
			s0-13.7-3.4-32.5c-3.4-18.8-4.5-23.3-4.5-23.3s9.6,27.7,9.6,40.8c0,0,3.5-12.8,8.4-22.1c1-2,2.1-3.8,3.3-5.3
			c6.5-8.6,10.6-12.3,10.6-12.3S333.8,296.9,331,303c-2.8,6.1-2.8,6.1-2.8,6.1s4.7-2.6,7-3.5c2.3-0.9,7.3-1.4,7.3-1.4
			s-4.7,2.1-8.2,4c-3.5,1.9-4.9,2.6-6.6,4.9c-1.7,2.3-3.8,10.4-4.5,15.5c-0.7,5,0.7,19.8,0.7,19.8L320.6,348.5z"/>
		<rect x="298" y="345.8" class="st3" width="46.9" height="45.9"/>
		<path class="st4" d="M344.2,281.4c0,0-3.5-3.4,2.5-13.2c6-9.9,20.3-16.3,37.4-12c17,4.3,23.8,14.1,22.3,17.4
			c-1.5,3.3-14.3,9.9-31,13.9C358.8,291.6,347.7,283.7,344.2,281.4z"/>
		<path class="st2" d="M344.2,281.4c0,0,5.2-10.9,22.7-15.2c17.4-4.3,36.6,4.1,36.6,4.1"/>
		<path class="st4" d="M313.9,283.7c0,0,10.5-4.6,9.7-17.6c-0.8-13-8.7-20.7-16.6-23.2c-7.9-2.5-16.1,3.7-16.1,3.7s4.1,2.1,5.2,5.4
			c1.2,3.3-0.8,12.6,2.5,20.3C301.9,280,309.2,284.6,313.9,283.7z"/>
		<path class="st2" d="M313.9,283.7c0,0,0.6-12.2-2.1-23.2c-2.7-11-6.2-14.3-8.9-14.9"/>
		<path class="st4" d="M306.3,309.6c0,0-2.3-15.1-6.6-19.2c-4.3-4.1-26.7-4.3-34.6,4.5c-7.9,8.7-6.2,10.8-6.2,10.8
			s11.4-2.7,14.7-1.7c3.3,1,12.2,8.1,19,9.7C299.3,315.2,306.3,309.6,306.3,309.6z"/>
		<path class="st2" d="M306.3,309.6c0,0-6-6.6-15.1-11.6c-9.1-5-12-6.8-20.7-3.1"/>
		<path class="st4" d="M340.6,304.4c0,0,3.1,5.4,8.5,6.8c5.4,1.4,9.1,1.9,18.6-0.8c9.5-2.7,12.2-1.7,14.5-1.4
			c2.3,0.4,0.2-2.3-6.6-8.9c-6.8-6.6-17-9.1-24.8-6.8C343.1,295.7,340.6,300.3,340.6,304.4z"/>
		<path class="st2" d="M340.6,304.4c0,0,5.4-4.6,16.6-4.3c11.2,0.4,17,4.1,17,4.1"/>
		<path class="st4" d="M320.7,316.6c0,0-4.1-1.4-8.1-0.6c-14.3,2.8-8.1,11.6-6.1,13.9c3.8,4.3,11.4,11.9,12.5,11.8
			c1.1-0.1,10.4-8.2,17.1-14.1C342.9,321.6,325.7,315.7,320.7,316.6z"/>
		<path class="st2" d="M320.7,316.6c0,0-2.9,7-2.1,19.9"/>
	</g>
</g>
<g id="Speech_Bubble">
	<g>
		<path class="st5" d="M488.7,211h-68.7c-6,0-10.9-4.9-10.9-10.9v-19.5c0-6,4.9-10.9,10.9-10.9h68.7c6,0,10.9,4.9,10.9,10.9v19.5
			C499.6,206.1,494.8,211,488.7,211z"/>
		<polyline class="st5" points="451.3,210.4 471,223.9 463.6,209.1 		"/>
		<g>
			<circle class="st4" cx="439.6" cy="190" r="3.7"/>
			<circle class="st4" cx="454.4" cy="190" r="3.7"/>
			<circle class="st4" cx="469.2" cy="190" r="3.7"/>
		</g>
	</g>
</g>
<g id="Line">
	<line class="st3" x1="726.2" y1="440.7" x2="45.9" y2="440.7"/>
</g>
<g id="Character_2">
	<g>
		<polygon class="st4" points="426.4,242 612.3,242 589.6,387.1 403.6,387.1 		"/>
		<polygon class="st4" points="421.3,242 607.2,242 584.5,387.1 398.5,387.1 		"/>
		<polygon class="st3" points="425.2,245.5 602.2,245.5 580.6,383.6 403.5,383.6 		"/>
		<polygon class="st0" points="443.7,262 578.5,262 562,367.1 427.3,367.1 		"/>
		<polygon class="st6" points="427.9,363.2 427.3,367.1 562,367.1 562.6,363.2 		"/>
		<rect x="365.8" y="387.3" class="st4" width="220.5" height="4.4"/>
		<rect x="303.2" y="387.3" class="st4" width="176.3" height="4.4"/>
		<g>
			<path class="st3" d="M489.5,279.5c0,0-28,10-28.5,12.1c-0.5,2-3.5,61.5-3.5,61.5h52.2c0,0,23.5-63.8,22.4-64.6
				c-1.1-0.9-23.3-10.7-23.3-10.7L489.5,279.5z"/>
			<path class="st3" d="M492.8,272.4c0,0-3.9,1.5-4.9,4.5c-1.1,3-7.3,11.8-5.4,12.9c1.9,1.1,15.9-5.8,15.9-5.8s7.5,11,10.1,8.4
				c2.6-2.6,5.8-11.2,5.4-15.3c-0.4-4.1-4.9-4.3-4.9-4.3L492.8,272.4z"/>
			<path class="st7" d="M492.3,267.2c0,0-1.7,10.3-1.1,12.9c0.6,2.6,3.9,10.5,5.2,9.9c1.3-0.6,12.3-12.3,12.3-12.3l4.5-12.5
				L492.3,267.2z"/>
			<g>
				<path class="st7" d="M488.2,248.5c0,0-3-0.6-3,3c0,3.7,2.8,6,2.8,6l-0.2-5.6L488.2,248.5z"/>
				<path class="st7" d="M522.7,253c0,0,3-13.8,1.9-19.8c-1.1-6-10.5-13.3-17.9-12.5c-7.3,0.9-14,5.2-15.3,9.7
					c-1.3,4.5-4.5,20-4.1,23.9c0.4,3.9,3.7,14.8,4.9,15.9c1.3,1.1,5.4,3,8.2,2.6c2.8-0.4,12.9-6.2,14.8-7.5c1.9-1.3,3.2-2.8,3.2-2.8
					s8.2-1.9,7.5-7.7C525.8,251.9,522.7,253,522.7,253z"/>
				<path class="st2" d="M496.8,250.2c0,0,5.2,3.7,9.7,0.4"/>
				<path class="st2" d="M495.1,256.7c0,0,8.6,4.3,14.6-1.3"/>
				<path class="st5" d="M498.1,258.2c0,0,0.6,3.7,2.8,4.1c2.2,0.4,4.9-4.5,4.9-4.5S503.5,258.8,498.1,258.2z"/>
				<path class="st8" d="M511.9,243.6c-0.1,0.9-0.7,1.5-1.3,1.5c-0.6-0.1-1-0.8-0.9-1.7c0.1-0.9,0.7-1.5,1.3-1.5
					C511.6,241.9,512,242.7,511.9,243.6z"/>
				<path class="st8" d="M497.7,242c-0.1,0.9-0.7,1.5-1.3,1.5c-0.6-0.1-1-0.8-0.9-1.7c0.1-0.9,0.7-1.5,1.3-1.5
					C497.4,240.4,497.8,241.1,497.7,242z"/>
				<path class="st2" d="M508.7,236.7c0,0,4.5-1.5,7.5,2.8"/>
				<path class="st2" d="M498.8,235.8c0,0-3-2.4-5.6,1.3"/>
			</g>
			<polyline class="st2" points="496.4,290 491.2,310.9 495.4,310.3 498,300.4 			"/>
			<polygon class="st3" points="461,291.6 421.6,383.7 435.3,383.7 458.1,340.1 			"/>
			<g>
				<path class="st7" d="M532,288.5l4.8,30.9l21.5-34.9c0,0,1.7-9.9,2.6-11.1c0.9-1.1,11.3-15.9,11.3-15.9s2.6-2.8,4-2.3
					s0.9,3.1-0.9,4.5c-1.7,1.4-4.5,6.5-5.1,7.9c-0.6,1.4,4,12.2,3.4,13.3c-0.6,1.1-7.9,7.7-8.8,9.1c-0.9,1.4-21.8,48.2-25.8,55.6
					c-4,7.4-6,4-7.1,2.6c-1.1-1.4-12.2-24.4-12.2-24.4L532,288.5z"/>
				<path class="st7" d="M558.4,284.5c0,0,0.3-12.2,1.1-13.6c0.9-1.4,4.5-6.8,4.8-8.2c0.3-1.4,2.6-0.3,2.8,2
					c0.3,2.3-3.7,7.9-3.7,7.9s2.3,5.1,1.1,8.2c-1.1,3.1-1.1,3.1-1.1,3.1"/>
				<path class="st7" d="M570.9,266.7c0,0,4.6,2.8,4.6,3.5c0,0.7-1.2,4-1.8,5.1c-0.6,1.1-3.2,4.1-4.1,3.2c-1-1,0.4-3,0.7-3.6
					c0.3-0.6,0.6-3,0.6-3l-1.7-1.2"/>
				<path class="st7" d="M575.3,271.9c0,0,2.6,3.5,2.2,4.3c-0.4,0.8-2.2,4.7-3.8,4.9c-1.6,0.2-2.7-0.6-2.4-1.4
					c0.3-0.8,1.2-2.5,1.2-2.5S574.6,274.7,575.3,271.9z"/>
				<path class="st7" d="M577,277.7c0,0,1.1,2.3,0.7,3.5c-0.4,1.1-2.8,3.3-4,2.9c-1.2-0.4,1-2.6,1-2.6L577,277.7z"/>
				<path class="st3" d="M554.1,291.4l-17.3,28l-4.8-30.9l-12.2,35.4c0,0,11.1,23,12.2,24.4c1.1,1.4,3.1,4.8,7.1-2.6
					c3.1-5.8,16.6-35.7,22.8-49.1L554.1,291.4z"/>
			</g>
			<polygon class="st5" points="507,383.7 509.6,353.1 457.5,353.1 448.3,383.7 			"/>
		</g>
	</g>
</g>
<g id="Character_1">
	<g>
		<path class="st5" d="M437.9,391.6c0,0-1.6-10.8-7.2-16.2c-5.6-5.4-18.4-4.7-31.7,1.8c-13.3,6.5-22.5,14.6-22.5,14.6L437.9,391.6z"
			/>
		<g>
			<path class="st3" d="M207.7,302.5c0,0,0.3-12.6,1.4-17.3c1.1-4.7,3.3-8.2,2.5-14.5c-0.8-6.3-3.6-10.7,0-11
				c3.6-0.3,6.9,3.8,7.4,8.8c0.5,4.9,0.3,8.8,0.3,8.8s3.8-17,4.9-19.8c1.1-2.7,4.4-6.3,6.3-6.3c1.9,0,8.8,5.2,8.2,7.4
				c-0.5,2.2-1.4,2.5-3.6,2.7c-2.2,0.3-2.2,0.3-2.2,0.3s-2.7,8.5-2.7,10.4c0,1.9,8,3.3,12.3,7.4c4.4,4.1,7.4,8.8,6.9,9.6
				c-0.5,0.8-2.5,3-3.8,6c-1.4,3-1.1,10.2-6.6,16.2c-5.5,6-11.3,9.9-11.3,9.9l-3.8,17.3L207.7,302.5z"/>
			<path class="st3" d="M251.8,277.8c0,0,4.9,0.8,6,3.3c1.1,2.5,0.5,10.7-0.8,14.3c-1.4,3.6-2.7,1.6-3.6-4.1
				C252.7,285.5,251.8,277.8,251.8,277.8z"/>
			<path class="st3" d="M242.5,273.9c0,0,4.9-1.6,7.4-0.3c2.5,1.4,4.7,9.6,4.7,13.7c0,4.1-1.1,8-3.3,5.8c-2.2-2.2-3.3-7.4-4.7-11.3
				C245.3,278,242.5,273.9,242.5,273.9z"/>
			<path class="st3" d="M230.7,274.7c0,0,6-5.5,7.7-5.8c1.6-0.3,6.6,5.5,7.4,7.1c0.8,1.6,3,13.4,3.3,14.8c0.3,1.4-3.6,1.9-5.5-1.6
				c-1.9-3.6-3.3-8.2-3.3-8.2L237,280"/>
			<path class="st2" d="M229.6,281.3c0,0,1.4,4.4,9.6,8.2"/>
			<path class="st2" d="M219.2,277.2c0,0,0.3,3.3,2.5,6c2.2,2.7,7.1,15.6,5.5,20c-1.6,4.4-3.6,6.9-3.6,6.9"/>
			<path class="st2" d="M227.2,256.9c0,0,1.4,4.1,5.8,4.7"/>
		</g>
		<path class="st4" d="M146.3,240.8c0,0-25.7,32.3-33,49.4c-7.3,17.1-9.2,38.3-8.2,47.9c1,9.5,23.1,102.7,23.1,102.7h106.5
			l-8.9-54.5l-26.9-103L146.3,240.8z"/>
		<path class="st2" d="M202.3,398.4c0,0-10.5,18.4-27.3,26.8"/>
		<g>
			<path class="st3" d="M249.1,177c0,0,1.3,15.7-0.3,21.1c-1.5,5.4-6.4,8-6.2,13.1c0.3,5.2,5.2,14.9,4.1,18c-1,3.1-5.2,5.7-7,6.4
				c-1.8,0.8-14.2,21.6-16.2,24.2c-2.1,2.6-5.9,2.3-9,1.3c-3.1-1-7-2.8-8.5-2.8c-1.5,0-13.1,13.1-13.1,13.1l-40.2-41.2
				c0,0,9.8-7,9.8-11.8c0-4.9-14.7-34.5-13.1-48.2c1.5-13.6,27-35.5,41.5-37.3c14.4-1.8,31.7,3.9,37.3,7c5.7,3.1,8,5.2,8,5.2
				s-3.6-6.4-0.5-5.4c3.1,1,7.7,9,7.7,9s1.5-9.3,4.9-3.1c3.3,6.2,3.9,14.9,3.9,14.9s6.4-10,7.7-2.1
				C261.2,166.5,254.5,174.2,249.1,177z"/>
			<path class="st5" d="M252.2,160.6c0,0-0.5-8.8-3.9-14.9c-3.3-6.2-4.9,3.1-4.9,3.1s-4.6-8-7.7-9c-3.1-1,0.5,5.4,0.5,5.4
				s-2.3-2.1-8-5.2c-5.7-3.1-22.9-8.8-37.3-7c-14.4,1.8-39.9,23.7-41.5,37.3c-1.5,13.6,13.1,43.3,13.1,48.2c0,0.2,0,0.4-0.1,0.6
				c2.8,0.6,7.2,1.2,12.4,0.1c8.8-1.8,28.6-20.6,32.7-24.5c4.1-3.9,4.6-4.4,7.5-9.8c2.8-5.4-1.3-8.2-2.1-11.6
				c-0.8-3.3,2.8-5.4,12.4-6.2c9.5-0.8,14.7,7,16.2,8c1.5,1,7.5,1.8,7.5,1.8c5.4-2.8,12.1-10.6,10.8-18.5
				C258.6,150.5,252.2,160.6,252.2,160.6z"/>
			<g>
				<path class="st4" d="M196.3,183.2l-4.9-53.8l18.8,0.3c0,0,4.9,22.9-0.8,55.4L196.3,183.2z"/>
				
					<ellipse transform="matrix(0.7071 -0.7071 0.7071 0.7071 -85.3747 201.8438)" class="st4" cx="201" cy="204" rx="22.5" ry="22.5"/>
				
					<ellipse transform="matrix(0.7071 -0.7071 0.7071 0.7071 -85.3747 201.8438)" class="st5" cx="201" cy="204" rx="14.8" ry="14.8"/>
			</g>
			<path class="st5" d="M239.5,209.9c-0.6,2.3-1.6,4-2.2,3.8c-0.5-0.2-0.5-2.1,0.2-4.4c0.6-2.3,1.6-4,2.2-3.8
				C240.3,205.7,240.2,207.6,239.5,209.9z"/>
			<path class="st2" d="M247,199.2c0,0-4.6-3.3-7.5-2.6c-2.8,0.8-4.1,2.3-4.1,2.3"/>
			<path class="st2" d="M225.9,230.9c0,0-1.3,7.5,7,9.3"/>
			<path class="st2" d="M191.9,228.3c0,0-2.3,7-1,11.1c1.3,4.1,5.9,7.7,5.9,7.7"/>
		</g>
		<path class="st4" d="M153.6,225.9c0,0,45.3,39.9,46.6,42.8c1.3,2.9,3.8,20.6,3.8,20.6s-11.7-7.6-23.1-15.8
			c-11.4-8.2-39.6-33-39.6-33L153.6,225.9z"/>
		<g>
			<path class="st3" d="M259.5,383.7c0,0,8.9-4.4,33.3-5.8c24.4-1.4,56.4-5.1,67.7-8.5c11.3-3.4,31.6-13.8,35.1-14.7
				c3.5-0.9,16.3-3.2,19.7-4.1c3.5-0.9,6.1,3.6,6.1,3.6s4.3-0.8,5.1,1c0.9,1.8,4.2,11.1,4.2,11.1s3.6,2.2,4.8,5.1
				c1.2,2.9,2.4,10.1,1.1,11.5c-1.3,1.5-3.7-1.4-4.1-2.2c-0.4-0.9-5.7-6.9-7.9-6.9c-2.2,0-10,0-13.3,1.7
				c-3.3,1.7-23.4,12.7-28.1,14.6c-4.7,1.8-22.8,0.6-22.8,0.6s-64,28-82.9,33.5c-18.9,5.5-38.4,3.6-42.5,2.2
				c-4.1-1.4-9.3-11.5-9.3-11.5L259.5,383.7z"/>
			<line class="st3" x1="404.8" y1="356.3" x2="421.5" y2="354.3"/>
			<path class="st3" d="M415.1,363.6c0,0,10.9,1.5,12.2,1.7c1.4,0.2,3.5,1,3.5,1"/>
		</g>
		<g>
			<path class="st4" d="M158.5,292c0,0-8.1,32.5-6.7,41.8c1.5,9.2,8.1,18.5,14,25.9s42.1,65.8,42.1,65.8s9.2-2.6,28.1-15.9
				c18.9-13.3,27.4-28.1,27.4-28.1s-3.3-7.8-5.5-9.2c-2.2-1.5-9.6-1.8-9.6-1.8s0.4-4.1-2.6-8.1c-3-4.1-3-4.1-3-4.1
				s-31.4-55.8-39.2-65.8c-7.8-10-19.2-12.6-24.4-11.5c-5.2,1.1-12.2,8.9-12.2,8.9"/>
			<path class="st2" d="M194.4,364.2c0,0,19.4,10.5,44.1,7.4"/>
		</g>
	</g>
	<g>
		<path class="st5" d="M92.2,440.8h47.6c-1.7-7.8-5.4-24.5-9.6-44.3c-5.9-27.7-19.6-55.8-19.9-59.8c-0.3-2.8,6.4-4.7,12.3-5.4H82.9
			c-0.3-0.1-0.7-0.1-1.1-0.2c-5.2-0.7-19.6,1.5-19.2,5.5c0.4,4.1,14,32.1,19.9,59.8C86.8,416.4,90.5,433,92.2,440.8z"/>
		<path class="st9" d="M139.8,440.8h26.1c-2.9-13.9-12.6-59.6-21-82.3c-10-27-10.3-26.6-15.5-27.3c-5.2-0.7-19.6,1.5-19.2,5.5
			c0.4,4.1,14,32.1,19.9,59.8C134.4,416.4,138.1,433,139.8,440.8z"/>
	</g>
</g>
</svg>
