<?xml version="1.0" encoding="utf-8"?>
<!-- Generator: Adobe Illustrator 25.2.0, SVG Export Plug-In . SVG Version: 6.00 Build 0)  -->
<svg version="1.1" id="Layer_1" xmlns="http://www.w3.org/2000/svg" xmlns:xlink="http://www.w3.org/1999/xlink" x="0px" y="0px"
	 viewBox="0 0 400 400" style="enable-background:new 0 0 400 400;" xml:space="preserve">
<style type="text/css">
	.st0{fill:#FFFFFF;}
</style>
<g>
	<g>
		<path class="st0" d="M318.7,130.3c-0.3-3.5-0.7-6.9-1.3-10.3c-1.4-8.1-3.6-16-6.7-23.7c-6.4-15.8-15.7-29.6-27.9-41.4
			c-13.2-12.7-28.5-21.9-46-27.6c-7.4-2.4-14.9-4-22.6-4.9c-3.3-0.4-6.6-0.6-9.9-0.8c-4.5-0.2-8.9,0-13.4,0.3
			c-3.7,0.3-7.3,0.7-11,1.4c-6.2,1-12.2,2.6-18.1,4.6c-18.1,6.2-33.8,16.2-47.2,29.9c-12.1,12.4-21,26.8-26.8,43.2
			c-2.4,6.9-4.2,13.9-5.3,21.1c-0.6,3.6-1,7.2-1.2,10.9c-0.2,2.9-0.2,5.9-0.3,8.3c0.1,2.3,0.1,4.1,0.2,5.9c0,2.6,0.2,5.3,0.4,8
			c0.3,4.8,0.9,9.5,1.6,14.3c1,6.7,2.3,13.4,3.9,20c3.2,12.8,7.5,25.2,12.8,37.3c6.9,15.9,15.4,30.9,25.1,45.2
			c12.6,18.7,27,35.9,42.9,51.9c4.7,4.8,9.6,9.4,14.6,13.9c2.7,2.4,5.3,4.8,8.1,7c4,3.3,8.6,4.2,13.6,2.9c2.2-0.6,4.2-1.8,6-3.3
			c10.2-8.7,19.8-17.9,29-27.6c10.5-11.1,20.3-22.8,29.3-35.2c10.6-14.5,20-29.8,27.8-46c7.5-15.6,13.5-31.7,17.5-48.6
			c1.3-5.6,2.4-11.2,3.2-16.8c0.6-3.8,1.1-7.6,1.4-11.4c0.3-3.4,0.6-6.9,0.7-10.4c0.1-3,0.1-6,0.1-9
			C319.1,136.4,318.9,133.4,318.7,130.3z M201.6,217c-22.9,0.4-42.5-9.1-55.6-22.4c-14.2-14.4-21.8-31.7-22.3-51.9
			c-1.2-43.2,33.6-78.5,76.3-78.4c42.2,0,76.4,34.3,76.3,76.4C276.4,182.8,242.5,216.3,201.6,217z"/>
		<path class="st0" d="M276,355.6c-0.9,1.9-2.2,3.5-3.7,4.9c-1.9,1.8-4,3.3-6.3,4.7c-3.7,2.2-7.7,3.9-11.8,5.3
			c-5.4,1.9-11,3.3-16.6,4.4c-4,0.8-8.1,1.5-12.2,2c-3.7,0.5-7.3,0.8-11,1c-3.5,0.2-7.1,0.4-10.6,0.4c-1.5,0-3.1,0.1-4.6,0
			c-3.6-0.1-7.2-0.1-10.7-0.3c-2.6-0.2-5.2-0.3-7.7-0.5c-3.9-0.4-7.8-0.8-11.6-1.4c-4.5-0.7-9.1-1.6-13.5-2.7
			c-5.8-1.5-11.4-3.2-16.8-5.7c-3-1.4-6-3-8.7-5.1c-1.6-1.2-3-2.6-4.3-4.2c-0.7-0.9-1.3-1.9-1.8-2.9c-1.3-2.9-1.2-5.8,0.1-8.7
			c0.7-1.6,1.7-2.9,2.9-4.2c1.6-1.6,3.3-3,5.2-4.3c3.3-2.2,6.8-3.8,10.5-5.3c5.3-2.1,10.8-3.7,16.4-4.9c0.6-0.1,1.2-0.3,1.9-0.4
			c0.3,0.3,0.6,0.5,0.9,0.8c4.5,4.6,9.1,9,13.9,13.3c3.2,2.9,6.4,5.7,9.7,8.6c3,2.6,6.5,4.3,10.3,5c6.6,1.2,12.7-0.2,18-4.2
			c2-1.5,3.8-3.2,5.6-4.8c6.4-5.6,12.6-11.5,18.7-17.6c0.3-0.3,0.7-0.7,1.1-1c7.6,1.6,14.9,3.7,21.9,6.8c2.9,1.3,5.7,2.9,8.3,4.8
			c1.7,1.2,3.2,2.6,4.6,4.2c0.9,1.1,1.7,2.2,2.2,3.5C277.4,350,277.3,352.8,276,355.6z"/>
	</g>
</g>
</svg>
