<?xml version="1.0" encoding="utf-8"?>
<!-- Generator: Adobe Illustrator 25.2.0, SVG Export Plug-In . SVG Version: 6.00 Build 0)  -->
<svg version="1.1" xmlns="http://www.w3.org/2000/svg" xmlns:xlink="http://www.w3.org/1999/xlink" x="0px" y="0px"
	 viewBox="0 0 750 500" style="enable-background:new 0 0 750 500;" xml:space="preserve">
<style type="text/css">
	.st0{fill:#92E3A9;}
	.st1{opacity:0.7;fill:#FFFFFF;}
	.st2{fill:none;stroke:#263238;stroke-linecap:round;stroke-linejoin:round;stroke-miterlimit:10;}
	.st3{fill:#263238;stroke:#263238;stroke-linecap:round;stroke-linejoin:round;stroke-miterlimit:10;}
	.st4{fill:#FFFFFF;stroke:#263238;stroke-linecap:round;stroke-linejoin:round;stroke-miterlimit:10;}
	.st5{fill:#92E3A9;stroke:#263238;stroke-linecap:round;stroke-linejoin:round;stroke-miterlimit:10;}
	.st6{fill:none;stroke:#263238;stroke-width:3;stroke-linecap:round;stroke-linejoin:round;}
	.st7{fill:#263238;}
	.st8{opacity:0.3;fill:none;stroke:#000000;stroke-linecap:round;stroke-linejoin:round;stroke-miterlimit:10;}
	.st9{opacity:0.3;}
	.st10{fill:none;stroke:#000000;stroke-linecap:round;stroke-linejoin:round;stroke-miterlimit:10;}
	.st11{fill:none;stroke:#000000;stroke-miterlimit:10;}
	.st12{fill:none;stroke:#000000;stroke-width:0.5;stroke-miterlimit:10;}
	.st13{fill:#BABABA;stroke:#263238;stroke-linecap:round;stroke-linejoin:round;stroke-miterlimit:10;}
	.st14{fill:none;stroke:#263238;stroke-width:2;stroke-linecap:round;stroke-linejoin:round;stroke-miterlimit:10;}
	.st15{fill:#787878;stroke:#263238;stroke-linecap:round;stroke-linejoin:round;stroke-miterlimit:10;}
	.st16{fill:#D1D1D1;stroke:#263238;stroke-linecap:round;stroke-linejoin:round;stroke-miterlimit:10;}
</style>
<g id="Background_Simple">
	<g>
		<path class="st0" d="M709.6,338.9c16.7-123.5-66.9-238.3-189.1-262.5c-17.4-3.5-36.8-6.4-58.1-8.5c-123-12-216,103-301,136
			s-124,29-132,135s89,139,199,118s102-76,228-31s183,55,228-14C697.3,392.1,705.8,366.8,709.6,338.9z"/>
		<path class="st1" d="M709.6,338.9c16.7-123.5-66.9-238.3-189.1-262.5c-17.4-3.5-36.8-6.4-58.1-8.5c-123-12-216,103-301,136
			s-124,29-132,135s89,139,199,118s102-76,228-31s183,55,228-14C697.3,392.1,705.8,366.8,709.6,338.9z"/>
	</g>
</g>
<g id="Window">
	<g>
		<g>
			<path class="st2" d="M683,99.4c4.4,9.9,6.9,20.9,6.9,32.5v236.9H530.4V132c0-44,35.7-79.7,79.7-79.7h0
				c30.1,0,56.2,16.6,69.8,41.2"/>
			<path class="st2" d="M586.1,77.7c7.4-3.1,15.5-4.9,24-4.9h0c34.1,0,61.7,27.6,61.7,61.7V368"/>
			<path class="st2" d="M548.4,368V134.5c0-24.1,13.8-45,34-55.2"/>
			<line class="st2" x1="610.1" y1="147.8" x2="610.1" y2="368.4"/>
			<line class="st2" x1="610.1" y1="52.2" x2="610.1" y2="140.9"/>
			<line class="st2" x1="531.3" y1="122.8" x2="688.8" y2="122.8"/>
			<line class="st2" x1="555.9" y1="172.3" x2="688.8" y2="172.3"/>
			<line class="st2" x1="531.3" y1="172.3" x2="550.7" y2="172.3"/>
			<line class="st2" x1="531.3" y1="222" x2="688.8" y2="222"/>
			<line class="st2" x1="664.5" y1="271.8" x2="688.8" y2="271.8"/>
			<line class="st2" x1="531.3" y1="271.8" x2="657.1" y2="271.8"/>
			<line class="st2" x1="587" y1="321.5" x2="688.8" y2="321.5"/>
			<line class="st2" x1="531.3" y1="321.5" x2="580.6" y2="321.5"/>
			<line class="st2" x1="552.3" y1="77.1" x2="566.6" y2="90.1"/>
			<line class="st2" x1="667.4" y1="77.1" x2="653.1" y2="90.1"/>
		</g>
	</g>
</g>
<g id="Speech_Bubble">
	<path class="st3" d="M489.4,73.6H305.7c-8.5,0-15.3,6.9-15.3,15.4v37.4L267,146.6l23.4-2.2v16.9c0,8.5,6.9,15.4,15.3,15.4h183.7
		c8.5,0,15.3-6.9,15.3-15.4V89C504.7,80.5,497.8,73.6,489.4,73.6z"/>
	<path class="st4" d="M491.5,69.3H307.8c-8.5,0-15.3,6.9-15.3,15.4v37.4l-23.4,20.2l23.4-2.2V157c0,8.5,6.9,15.4,15.3,15.4h183.7
		c8.5,0,15.3-6.9,15.3-15.4V84.7C506.8,76.2,500,69.3,491.5,69.3z"/>
</g>
<g id="Plant">
	<g>
		<polygon class="st3" points="128.7,432.6 103.9,432.6 101.7,403 130.9,403 		"/>
		<g>
			<g>
				<path class="st2" d="M118.2,402.2c0,0,2.5-23.3,9.1-50.9"/>
				<path class="st2" d="M121.4,382c0,0,10.9-12.6,16.7-18.8"/>
				<path class="st2" d="M114.9,402.7c0,0-3-39.9-8.1-58.8"/>
				<path class="st2" d="M114.1,394.4c0,0-5.7-20.5-12.7-30.7"/>
				<line class="st2" x1="111.1" y1="387.1" x2="97.4" y2="377.4"/>
				<line class="st2" x1="123.1" y1="369.1" x2="118.9" y2="346"/>
			</g>
			<path class="st5" d="M101.6,379.6c0,0-0.6-4.7-5.3-6.9c-4.7-2.2-10-3.1-9.2,0c0.8,3.1,2.8,5.3,5.8,6.9
				C96,381.2,101.6,379.6,101.6,379.6z"/>
			<path class="st5" d="M103.8,366.4c0,0,0.8-4.7-3.1-8.1c-3.9-3.4-8.8-5.7-8.8-2.5c0,3.2,1.2,5.8,3.7,8.3
				C98,366.5,103.8,366.4,103.8,366.4z"/>
			<path class="st5" d="M108.9,350c0,0,2.8-3.9,0.8-8.7c-2-4.8-5.4-9-6.8-6.2c-1.4,2.8-1.5,5.8-0.3,9.1
				C103.7,347.5,108.9,350,108.9,350z"/>
			<path class="st5" d="M120,351.9c0,0,2.8-3.9,0.8-8.7c-2-4.8-5.4-9-6.8-6.2c-1.4,2.8-1.5,5.8-0.3,9.1
				C114.7,349.4,120,351.9,120,351.9z"/>
			<path class="st5" d="M125.6,359c0,0,4.2-2.2,4.5-7.5c0.3-5.2-0.8-10.4-3.4-8.5c-2.5,1.9-3.9,4.5-4.3,8
				C122.1,354.4,125.6,359,125.6,359z"/>
			<path class="st5" d="M133.5,367.5c0,0,4.6,1,8.3-2.7c3.7-3.7,6.2-8.4,3-8.6c-3.2-0.2-5.9,0.9-8.5,3.2
				C133.7,361.7,133.5,367.5,133.5,367.5z"/>
			<path class="st5" d="M119.4,393.4c0,0,4.6,1,8.3-2.7c3.7-3.7,6.2-8.4,3-8.6c-3.2-0.2-5.9,0.9-8.5,3.2
				C119.7,387.6,119.4,393.4,119.4,393.4z"/>
			<path class="st5" d="M121.4,377.3c0,0,1.5-4.5-1.8-8.5c-3.3-4-7.7-7.1-8.3-4c-0.6,3.1,0.2,6,2.3,8.8
				C115.7,376.4,121.4,377.3,121.4,377.3z"/>
		</g>
	</g>
</g>
<g id="Charts">
	<g>
		<g>
			<rect x="317.8" y="98.1" class="st5" width="9.6" height="62.8"/>
			<rect x="332.9" y="126.1" class="st5" width="9.6" height="34.7"/>
			<rect x="348" y="112.1" class="st5" width="9.6" height="48.8"/>
			<rect x="363.1" y="140.1" class="st5" width="9.6" height="20.7"/>
		</g>
		<g>
			<g>
				<polyline class="st6" points="321.1,86 337.8,101.7 353.1,93.4 366.8,117.5 				"/>
				<g>
					<polygon class="st7" points="362,118.7 370.2,123.5 370.3,113.9 					"/>
				</g>
			</g>
		</g>
		<g>
			<rect x="427.7" y="113.5" class="st5" width="9.6" height="47.3"/>
			<rect x="442.8" y="109.4" class="st5" width="9.6" height="51.5"/>
			<rect x="457.9" y="99.4" class="st5" width="9.6" height="61.4"/>
			<rect x="473" y="96" class="st5" width="9.6" height="64.8"/>
		</g>
		<g>
			<g>
				<polyline class="st6" points="433,103.6 448.7,101.7 462,93.2 474,85.6 				"/>
				<g>
					<polygon class="st7" points="475.4,90.4 479.8,81.9 470.2,82.4 					"/>
				</g>
			</g>
		</g>
		<polygon class="st7" points="421.8,135.3 391.3,119.3 391.3,128 379.6,128 379.6,142.5 391.3,142.5 391.3,151.2 		"/>
	</g>
</g>
<g id="Gears">
	<g>
		<path class="st8" d="M428.2,295l10.7,2.4l2.5-10.8l-10.3-2.3c0-0.3,0-0.6,0-0.9c0-3.4-0.7-6.6-1.9-9.6l8.3-6.6l-6.9-8.7l-8,6.3
			c-2.8-2.4-6-4.2-9.7-5.1v-10.4h-11.1v10c-3.7,0.7-7.2,2.3-10.1,4.5l-8-6.4l-6.9,8.7l7.9,6.3c-1.6,3.2-2.6,6.8-2.6,10.6l-10.2,2.3
			l2.5,10.8l10.1-2.3c1.5,3.3,3.8,6.2,6.5,8.4l-4.7,9.8l10,4.8l4.6-9.6c1.9,0.4,3.8,0.7,5.8,0.7c1.6,0,3.2-0.2,4.7-0.5l4.8,9.9
			l10-4.8l-4.7-9.7C424.1,300.8,426.5,298.1,428.2,295z M395.6,283.3c0-6,4.9-10.9,10.9-10.9c6,0,10.9,4.9,10.9,10.9
			c0,6-4.9,10.9-10.9,10.9C400.5,294.2,395.6,289.4,395.6,283.3z"/>
		<path class="st8" d="M448.6,241.7l8.8,2l2-8.9l-8.4-1.9c0-0.3,0-0.5,0-0.8c0-2.8-0.6-5.4-1.6-7.9l6.8-5.4l-5.7-7.1l-6.5,5.2
			c-2.3-2-5-3.4-7.9-4.2v-8.5H427v8.2c-3.1,0.6-5.9,1.9-8.3,3.7l-6.6-5.3l-5.7,7.1l6.4,5.1c-1.3,2.6-2.1,5.6-2.1,8.7l-8.4,1.9l2,8.9
			l8.3-1.9c1.3,2.7,3.1,5,5.3,6.9l-3.9,8l8.2,4l3.8-7.9c1.5,0.4,3.1,0.6,4.7,0.6c1.3,0,2.6-0.1,3.8-0.4l3.9,8.2l8.2-4l-3.8-7.9
			C445.3,246.5,447.3,244.3,448.6,241.7z M421.9,232.2c0-4.9,4-8.9,8.9-8.9c4.9,0,8.9,4,8.9,8.9c0,4.9-4,8.9-8.9,8.9
			C426,241.1,421.9,237.1,421.9,232.2z"/>
	</g>
</g>
<g id="Calendar">
	<g class="st9">
		<rect x="54.5" y="262.7" class="st10" width="76.2" height="59.7"/>
		<line class="st10" x1="57.4" y1="274.5" x2="128.3" y2="274.5"/>
		<g>
			<rect x="59.4" y="281.4" class="st10" width="9" height="9"/>
			<rect x="73.9" y="281.4" class="st10" width="9" height="9"/>
			<rect x="88.3" y="281.4" class="st10" width="9" height="9"/>
			<rect x="102.8" y="281.4" class="st10" width="9" height="9"/>
			<rect x="117.3" y="281.4" class="st10" width="9" height="9"/>
		</g>
		<g>
			<rect x="59.4" y="295.1" class="st10" width="9" height="9"/>
			<rect x="73.9" y="295.1" class="st10" width="9" height="9"/>
			<rect x="88.3" y="295.1" class="st10" width="9" height="9"/>
			<rect x="102.8" y="295.1" class="st10" width="9" height="9"/>
			<rect x="117.3" y="295.1" class="st10" width="9" height="9"/>
		</g>
		<g>
			<rect x="59.4" y="308.9" class="st10" width="9" height="9"/>
			<rect x="73.9" y="308.9" class="st10" width="9" height="9"/>
			<rect x="88.3" y="308.9" class="st10" width="9" height="9"/>
			<rect x="102.8" y="308.9" class="st10" width="9" height="9"/>
			<rect x="117.3" y="308.9" class="st10" width="9" height="9"/>
		</g>
	</g>
</g>
<g id="Target">
	<g class="st9">
		<g>
			<path class="st11" d="M69.4,152.9c5.5-12.8,18.2-21.7,33-21.7c19.9,0,36,16.1,36,36c0,19.9-16.1,36-36,36c-19.9,0-36-16.1-36-36
				c0-4.5,0.8-8.8,2.3-12.7"/>
			<path class="st12" d="M69,152.8c5.6-12.9,18.5-21.9,33.4-21.9c20.1,0,36.4,16.3,36.4,36.4c0,20.1-16.3,36.5-36.4,36.5
				c-20.1,0-36.4-16.3-36.4-36.5c0-4.5,0.8-8.9,2.3-12.9"/>
		</g>
		<g>
			<path class="st11" d="M78.5,156.3c4.2-9.1,13.3-15.4,24-15.4c14.5,0,26.4,11.8,26.4,26.3c0,14.6-11.8,26.4-26.4,26.4
				c-14.6,0-26.4-11.8-26.4-26.4c0-3.3,0.6-6.4,1.7-9.3"/>
			<path class="st12" d="M78.1,156.2c4.2-9.3,13.6-15.7,24.4-15.7c14.8,0,26.8,12,26.8,26.8c0,14.8-12,26.8-26.8,26.8
				s-26.8-12-26.8-26.8c0-3.3,0.6-6.5,1.7-9.5"/>
		</g>
		<g>
			<path class="st11" d="M90,160.7C90,160.7,90,160.7,90,160.7c2.4-4.5,7-7.5,12.4-7.5c7.8,0,14.1,6.3,14.1,14.1
				c0,7.8-6.3,14.1-14.1,14.1s-14.1-6.3-14.1-14.1c0-1.8,0.3-3.4,0.9-5c0,0,0,0,0-0.1"/>
			<path class="st12" d="M89.5,160.9c0.1-0.1,0.1-0.2,0.2-0.3h0c2.4-4.6,7.3-7.8,12.8-7.8c8,0,14.5,6.5,14.5,14.5
				c0,8-6.5,14.5-14.5,14.5S88,175.3,88,167.3c0-1.8,0.3-3.5,0.9-5.1"/>
		</g>
		<path class="st11" d="M90.3,160.8c0,0-0.1,0-0.1,0l-0.1,0l-0.4-0.2h0l-11.1-4.2l-0.4-0.2l-8.6-3.3l-0.4-0.1l-13.9-5.3l0.7-5.1
			c0-0.2-0.1-0.4-0.3-0.5l-11-4.9c-0.2-0.1-0.4,0-0.5,0.1c-0.1,0.1-0.2,0.3-0.1,0.5l2.2,6.6l-1.6-0.6c-0.5-0.2-1,0.1-1.1,0.5
			c-0.2,0.5,0.1,1,0.5,1.1l1.7,0.6l-5.1,3.9c-0.1,0.1-0.2,0.3-0.2,0.5c0,0.2,0.2,0.3,0.4,0.3l12.3,1.9c0,0,0,0,0.1,0
			c0.2,0,0.3-0.1,0.4-0.3l1.2-2.9l13.7,5.2l0.4,0.1l8.6,3.3l0.4,0.2l11.1,4.2l0.4,0.1l0.3,0.1"/>
		<path class="st11" d="M90,160.7c0,0,0.1,0,0.1,0c0,0,0.1,0,0.1,0l7.9,3l0.9-2.6c0.1-0.4,0.5-0.6,0.8-0.6c0,0,0,0,0,0
			c0.4,0,0.7,0.3,0.8,0.6l1.6,5.2c0.1,0.4-0.1,0.8-0.4,1l-4,2c-0.1,0.1-0.3,0.1-0.4,0.1c-0.2,0-0.4-0.1-0.6-0.2
			c-0.3-0.2-0.4-0.6-0.3-0.9l1-2.9l-8-3c-0.1,0-0.2-0.1-0.3-0.2"/>
	</g>
</g>
<g id="Character_2">
	<g>
		<path class="st13" d="M516.7,292.5l-5.9,8.3c0,0-8.9,47.5-10.1,59.1c-1.2,11.6-1.2,72.7-1.2,72.7h54c0,0-11.3-64.1-10.1-69.8
			c1.2-5.6,5.3-65.3,5.3-65.3l-1.8-4.2L516.7,292.5z"/>
		<path class="st4" d="M543.4,362.8c0.4-1.9,1.1-10,2-19.9c-7.1,5-16.8,10.6-24.5,10.1c-8.8-0.6-14.5-6.9-17.4-11.3
			c-1.3,7.8-2.4,14.6-2.8,18.2c-1.2,11.6-1.2,72.7-1.2,72.7h54C553.5,432.6,542.2,368.5,543.4,362.8z"/>
		<g>
			<path class="st5" d="M516.7,292.5c0,0-13.1,61.7-13.7,76c-0.6,14.2-0.3,64.1-0.3,64.1H471l0.9-32.1l-14.8,18.1L436,397.2
				c0,0,21.4-43.3,23.7-49.3c2.4-5.9,8-26.7,9.2-29.7c1.2-3-1.5-4.5,3.6-6.2C477.5,310.3,516.7,292.5,516.7,292.5z"/>
			<path class="st5" d="M513.7,292.8c0,0-3-1.5-5.9,5c-3,6.5-8.9,23.4-11.9,28.5c-3,5,0.6,5,2.4,3.9c1.8-1.2,5.3-7.7,6.5-6.8
				c1.2,0.9,4.2,6.8,4.2,6.8l7.4-34.7C516.4,295.4,515.5,293.4,513.7,292.8z"/>
			<path class="st2" d="M476.9,340.3c0.7-3.7,1.2-6.2,1.2-6.2"/>
			<path class="st2" d="M470.1,396.7c0,0-1.2-17.2,0.3-23.4c0.9-3.8,3.6-17.7,5.6-27.8"/>
		</g>
		<path class="st4" d="M454.1,395.5c0,0-1.7-4-4-4c-2.4,0-14.5,2.2-16.9,4c-2.4,1.8-8.1,15.4-8.1,18c0,2.6,6.6,13.6,9.9,15.2
			c3.3,1.7,13.9-0.2,13.9-0.2s5.5-4.6,6.1-5.1s6.1-13.2,4.8-19.1C458.5,398.5,454.1,395.5,454.1,395.5z"/>
		<g>
			<path class="st13" d="M519.7,307.5l-5.3-12.8l-2.1-4.3c0,0,0,0-5.3,0c-5.3,0-8.2,1.1-10-2.1c-1.8-3.2-4.3-23.2-4.3-23.2
				s-2.1-0.7-4.3-2.1c-2.1-1.4-1.8-5,1.4-5.7c3.2-0.7,6.4-6.1,7.5-10.7c1.1-4.6-0.4-9.3,4.6-16.4c5-7.1,12.1-11.4,12.1-11.4
				s12.1-6.4,23.9-0.4c11.8,6.1,22.5,19.3,23.2,37.1c0.7,17.8-13.2,29.2-13.2,29.2l-2.9,25"/>
			<polygon class="st3" points="512.2,290.4 527.7,287.4 515.3,297.4 			"/>
			<path class="st2" d="M499.6,268.3c0,0,5.9,0.5,10-4.6"/>
			
				<ellipse transform="matrix(0.2555 -0.9668 0.9668 0.2555 132.1399 671.139)" class="st7" cx="501.8" cy="249.8" rx="3.2" ry="1.7"/>
			<path class="st2" d="M500.9,242.2c0,0,3.7-2.9,6.8,1.5"/>
		</g>
		<path class="st3" d="M568.5,209.1c0,0-10-12.5-17.8-16.8c-7.8-4.3-6.4,1.4-6.4,1.4s-24.6-10.7-27.5-7.8s5,4.3,5,4.3
			s-22.5,1.1-29.2,4.6c-6.8,3.6,1.1,6.1,1.1,6.1s-10.7,7.8-8.2,9.6c2.5,1.8,9.3-0.4,9.3-0.4s-9.6,11.8-5.7,14.6
			c3.9,2.9,10.7-1.4,10.7-1.4s-6.8,12.5-3.9,12.1c2.9-0.4,10.7-2.5,10.7-2.5s-1.1,4.3,1.8,4.6c2.9,0.4,6.8-2.5,6.8-2.5
			s-3.6,12.8,0.4,13.9c3.9,1.1,11.4-3.6,11.4-3.6s-6.4,18.5-5.3,25c1.1,6.4,7.1,1.4,7.1,1.4s2.1,13.6,6.1,14.6c3.9,1.1,5-2.1,5-2.1
			s-0.4,8.9,3.2,10.3c3.6,1.4,8.9-3.9,8.9-3.9s2.1,8.2,5.3,7.1c3.2-1.1,5.3-6.1,5.3-6.1s-0.4,6.1,3.2,3.6c3.6-2.5,6.8-11.4,6.8-11.4
			s0.4,6.8,6.8,2.5c6.4-4.3,6.4-15,6.4-15s3.9,3.6,6.1-1.8c2.1-5.3-0.7-15.7-0.7-15.7s6.1,1.4,5-2.1c-1.1-3.6-3.6-13.2-3.6-13.2
			s6.8,3.2,5.7-3.2c-1.1-6.4-16.8-17.8-16.8-17.8s6.4-7.5,2.5-8.6c-3.9-1.1-10.7,1.8-10.7,1.8s0.7-10.7-2.5-8.9
			C567.4,203.8,568.5,209.1,568.5,209.1z"/>
		<path class="st5" d="M546.7,296.6c0,0-7.4,62.9-7.7,71.8c-0.3,8.9,6.5,64.1,6.5,64.1h41l-0.9-30l37.1,2.7c0,0-11.5-43.6-15.6-53.1
			c-4.2-9.5-8.6-39.2-9.2-40.7c-0.6-1.5-43.1-13.4-45.2-15.2C550.6,294.5,546.4,291,546.7,296.6z"/>
		<path class="st5" d="M612.9,395.9l-27,1.2l-1.9,30.4c0,0,15.5,2.4,22.9,3.6c7.5,1.2,14-1,16.7-5.1c2.7-4.1,2.2-10.4,1.4-13.5
			c-0.7-3.1-4.8-14.7-4.8-14.7"/>
		<path class="st5" d="M552.6,296.3c0,0,4.7,17.5,5,26.4c0.3,8.9-1.2,11.6-3.3,8.6c-2.1-3-5-7.1-5-7.1l-6.2,5.6l3.9-36.5
			C547,293.4,552.3,293.1,552.6,296.3z"/>
		<path class="st2" d="M577.6,354.2c0,0-0.6,25.2,0.9,27.6c1.5,2.4,11.9,23.4,11.9,23.4"/>
		<path class="st2" d="M586.2,336.1c-0.5,1.5-0.9,3-1.4,4.5"/>
		<path class="st2" d="M595.2,313.3c0,0-4,8.3-7.6,18.4"/>
		<path class="st4" d="M574,399l1.7-3.6c0,0,7.5-3.4,10.6-3.9c3.1-0.5,15,11.1,16.4,15c1.4,3.9-2.7,15.5-4.1,18.3
			c-1.4,2.9-10.4,4.6-14.7,4.6c-4.3,0-13-5.3-14.2-7.5C568.4,419.8,574,399,574,399z"/>
		<g>
			<path class="st13" d="M580.2,422.2c0,0,5.5-4.3,4-12.9c-1.5-8.6-6-11.4-6-11.4l-47-8.3c0,0-21.4-8.9-22.9-8.6
				c-1.5,0.3-13.4,12.2-13.4,14c0,1.8,1.5,16.3,1.5,16.3s0.8,0.8,2.1,0.2c0,0,0,3.1,1.4,3.3c1.4,0.2,2-0.7,2-0.7s0.9,2.4,2.7,2
				c1.8-0.4,3.8-2.7,3.8-2.7s0.4,2.5,1.6,1.3c1.3-1.3,6-7.6,6-7.6s9.2,2.7,13.2,2c4-0.7,9.4-3.1,9.4-3.1l38,17
				C576.8,422.8,579.5,423,580.2,422.2z"/>
			<path class="st2" d="M508.6,413.2c0,0,1.1-5.4,1.8-7.2c0.7-1.8,2.2-2.5,2.9-3.3c0.7-0.7,9-6,9-6"/>
			<path class="st2" d="M515.7,390.6c0,0-10.3,9.4-10.9,11.6c-0.5,2.2-2.7,11.8-2.7,11.8"/>
			<path class="st2" d="M498.6,411.4c0,0,1.6-13.4,2-14.3c0.4-0.9,8.9-10.7,8.9-10.7"/>
		</g>
		<path class="st13" d="M461.6,393c0,0-14.7,4.8-17.4,6.1c-2.8,1.3-6.8,5.7-8.1,9.2c-1.3,3.5-1.5,11.6,3.5,16c5,4.4,11,2.9,15.4,0.7
			c4.4-2.2,13.8-18.9,13.8-18.9L461.6,393z"/>
		<g>
			<path class="st13" d="M471.1,388.8l5.3,6.6c0,0,5.7,3.3,6.4,4.4c0.7,1.1,2.9,9.7,3.3,10.8c0.4,1.1-1.8,4.2-3.7,2.9
				c-1.8-1.3-3.3-7.2-3.7-8.3c-0.4-1.1-2.9-2.4-4.2-2.6c-1.3-0.2-5.5-13.6-5.5-13.6L471.1,388.8z"/>
			<g>
				<path class="st13" d="M468.9,385.5c0,0-4.8,0.4-5.1,1.7c-0.4,1.3,2.6,11.9,4.8,15.6c2.2,3.7,3.3,4.8,4.8,4.8
					c1.5,0,2-1.7,1.8-2.8c-0.2-1.1-3.7-13.4-4-16C470.8,386.2,470.2,385.3,468.9,385.5z"/>
				<path class="st13" d="M464.2,389.3c0,0-5.1,2.2-5.5,3.7c-0.4,1.5,5.1,11,6.1,12.7c0.9,1.7,4.4,4.2,5.1,4
					c0.7-0.2,1.7-1.5,1.3-2.6c-0.4-1.1-0.9-2-0.9-2s-2.6-5.7-3.7-7.7C465.5,395.4,464.2,389.3,464.2,389.3z"/>
				<path class="st13" d="M459,394.6c0,0-3.9,3.7-3.9,5.5c0,1.8,5.3,8.6,7,9.4c1.7,0.7,4,2,5.5,1.7s2.2-1.5,2.2-1.5l-4.8-2.6
					L459,394.6z"/>
				<path class="st13" d="M455.7,402.1c0,0-1.7,3.7-1.1,5c0.6,1.3,5.7,6.2,7.5,7.2c1.8,0.9,3.9,2.2,4.2,0.7c0.4-1.5-2.9-4.2-2.9-4.2
					l-1.3-1.3L455.7,402.1z"/>
			</g>
		</g>
	</g>
</g>
<g id="Character_1">
	<g>
		<polygon class="st3" points="228,432.6 229.7,417.3 233.4,432.6 282.3,432.6 275.4,349.4 174.6,349.4 163.3,369.7 166.7,432.6 		
			"/>
		<g>
			<g>
				<g>
					<path class="st4" d="M382.8,215.9c0,0,3.4-2.8,3.6-1.2c0.1,1.6-3,6.2-3,6.2L382.8,215.9z"/>
					<path class="st4" d="M334.3,247.1l3.9-8.5c0,0,1.3-7,3.4-9.5c2.1-2.6,7.5-5.2,9-5.9c1.5-0.8,5.4-4.1,7.7-7
						c2.3-2.8,4.4-7,5.7-4.9c1.3,2.1,1.3,3.1,0.3,4.9c-1,1.8-4.6,8-4.6,8l15.4-4.9c0,0,6.9-3.6,6.3-2.5c-0.5,1.1-7.3,15.2-8.6,17.1
						c-1.3,2-6.6,6.7-11.2,9.4c-4.6,2.6-10.9,5.3-11.3,5.4c-0.4,0.1-3.4,6.1-3.4,6.1L334.3,247.1z"/>
					<path class="st4" d="M379.1,228c0,0,3.8-5.9,4.2-7.1c0.4-1.2-0.3-5.5-0.5-7.5c-0.3-2-2.2-1.6-2.6-0.7c-0.4,0.9,0,4.4,0,4.7
						c0,0.4-1.5,8.3-1.5,8.3l-0.7,3L379.1,228z"/>
					<path class="st4" d="M373.7,234c0,0,4.9-5.5,5.8-7.3c0.9-1.7,1.6-8.2,1.7-9.9c0.1-1.7-1.5-1.5-2.5-0.4
						c-1.1,1.1-0.9,7.9-1.1,8.3s-3.2,5.9-3.2,5.9L373.7,234z"/>
					<path class="st4" d="M345,244.3c0,0,5.5-5.7,7.5-6.6c2-0.9,14.5-4.4,14.5-4.4l3.4-3.2c0,0,2.7-5.7,2.8-7.1
						c0-2.5,3.9-7.6,4.5-5.5c0.3,1-1.1,7.6-2,11.2c-0.9,3.6-1.7,5.9-3.4,7.4c-1.7,1.5-8.7,6.7-10.8,7.3"/>
				</g>
				<path class="st2" d="M359.5,224.2c0,0-7.5,1.7-9.2,2.7"/>
				<line class="st2" x1="373.2" y1="223" x2="367.4" y2="225.4"/>
			</g>
			<polygon class="st4" points="333.9,243.8 352.3,254.1 347,261.6 330.6,249.6 			"/>
			<path class="st5" d="M328.9,247.6l23.8,15.5c0,0-24,37.2-28.6,44.1c-4.6,6.9-11,15.3-18.3,16.9c-2.6,0.6-30.6-26.9-30.6-26.9
				l4.3-77.6l4.3-4.1l20.9,62.2L328.9,247.6z"/>
			<polygon class="st3" points="280,259.2 285.1,305.8 277.2,299.4 			"/>
			<path class="st2" d="M304.5,277.6c0,0-9.2,12.6-9.2,14.9c0,2.3,3.7,6.6,3.7,6.6"/>
		</g>
		<polygon class="st4" points="206,191.3 220.3,291.1 221.4,353 257.6,353 256.3,253 256,200 251.1,190.8 		"/>
		<polygon class="st3" points="223.6,208.1 235.2,224.9 228.2,326.7 239.6,343.2 250.4,324.9 238.8,226.1 244.9,207 235.2,194.3 		
			"/>
		<polygon class="st4" points="235.2,201.3 220.6,220.3 206,191.3 210.3,187.3 		"/>
		<polygon class="st4" points="233,200.5 249,216.5 251.1,190.8 249.3,189.7 		"/>
		<path class="st4" d="M210.3,176.5v10.8c0,0,22.4,16.5,24.9,16.5s14.1-14.1,14.1-14.1l-0.3-7c0,0-11.1,1.4-18.4-0.8
			C223.3,179.7,210.3,176.5,210.3,176.5z"/>
		<g>
			<path class="st3" d="M204.4,114.8c0,0-4.5-5.8-9.5-6.9s-13.3,4.9-15.3,10.4c-2,5.6-2.4,8.4,2.2,12.2c4.6,3.9,7.3,5.1,11.4,3.4
				c4.1-1.7,6.6-7.1,6.6-7.1L204.4,114.8z"/>
			<path class="st4" d="M201.3,108.9c0,0-8.3,5-7.9,17.4c0.4,12.4,4.1,25.5,4.3,26.1c0.2,0.6,3.7,7.9,3.7,7.9s1,13.5,7,17.2
				c6,3.7,20.9,10.3,27.5,11c6.6,0.6,12.2,0.4,14.9-6.2c2.7-6.6,3.7-23.4,3.7-29.4s-1.7-11-1.7-13.9s0.6-5-0.6-13.2
				c-1.2-8.3-7.2-18-15.1-22.6C229.5,98.5,209.8,100.6,201.3,108.9z"/>
			<path class="st3" d="M251,182.1c1.9-4.7,3-14.4,3.4-21.8l-5.7-1.2c0,0,0,0-2.7,1c-2.7,1-5.6-0.8-5.6-0.8s-4.8,0-10.6,3.1
				c-5.8,3.1-9.1,5.8-9.1,5.8l-9.7-4.3c0,0-5-19.5-5.8-23.4c-0.8-3.9,6.6-6.6,7.9-9.3c1.2-2.7-3.1-4.1-5.2-8.5
				c-2.1-4.3,3.5-11,3.5-11c2.1-1,4.1-1.9,8.7-1.9c4.6,0,9.7,2.7,14.9,3.9s9.1-4.1,9.1-4.1l0.6-0.2c-2.2-2.6-4.7-4.8-7.4-6.4
				c-7.9-4.6-27.5-2.5-36,5.8c0,0-8.3,5-7.9,17.4c0.4,12.4,4.1,25.5,4.3,26.1c0.2,0.6,3.7,7.9,3.7,7.9s1,13.5,7,17.2
				c6,3.7,20.9,10.3,27.5,11C242.7,189,248.3,188.8,251,182.1z"/>
			<path class="st4" d="M244.2,144.7l4.6,14.5c0,0-1,2.1-5.2,1.9c-4.1-0.2-5-3.1-5-3.1"/>
			<path class="st14" d="M243.1,136.1c0,0,0.2-2.1,3.3-3.1c3.1-1,4.8,0.4,4.8,0.4"/>
			<path class="st14" d="M234.2,135.5c0,0-3.7-2.9-8.3-1.9c-4.6,1-7.4,3.3-7.4,3.3"/>
			<ellipse class="st7" cx="229.4" cy="145" rx="1.7" ry="2.9"/>
			<path class="st7" d="M251,143.3c0,1.6-0.7,2.9-1.7,2.9c-0.9,0-1.7-1.3-1.7-2.9c0-1.6,0.7-2.9,1.7-2.9
				C250.2,140.5,251,141.7,251,143.3z"/>
			<path class="st4" d="M199.5,149.9c0,0-3.7-6.2-8.3-4.6c-4.6,1.7-1.9,10.1,0.6,13.9c2.5,3.7,11,4.8,11,4.8L199.5,149.9z"/>
			<path class="st4" d="M242.9,168.9c0,0-6,0.2-11.4-4.3c0,0,0.6,8.3,4.3,8.7C239.6,173.7,242.9,168.9,242.9,168.9z"/>
		</g>
		<g>
			<path class="st5" d="M151.4,212.2l-26.3,68.3c0,0-4,13.1,0.6,18.8c4.6,5.7,17.7,0,22.8-5.7c5.1-5.7,21.1-42.7,21.1-42.7
				L151.4,212.2z"/>
			<path class="st5" d="M207.1,189.2c0,0,16.8,83,18.1,89.2c1.4,6.2-0.8,74.3-2.7,91.1c-1.9,16.8-11.4,31.1-24.1,32.2
				s-23.2-4.1-33.3-10.5c-10-6.5-14.6-9.7-14.6-9.7s18.7-73.5,18.1-76.2c-0.5-2.7-4.3-34.9-4.3-34.9s-14.6-54.6-13-58.1
				C153,208.6,207.1,189.2,207.1,189.2z"/>
			<path class="st5" d="M207.1,253.8c4.7,7,14.1,20.6,18.3,26.8c-0.1-1-0.1-1.8-0.2-2.2c-1.4-6.2-18.1-89.2-18.1-89.2s-4.5,1.6-11,4
				l0.8,28.1l11.4,4.1l-11.6,4.3C196.5,229.7,200.9,244.6,207.1,253.8z"/>
		</g>
		<g>
			<path class="st5" d="M251.1,190.8c0,0,1.4,38.9-0.8,58.7c-2.2,19.7-3,27.3-3.2,29.5c-0.3,2.2,8.4,106.5,9.2,111.6
				c0.8,5.1,5.9,8.9,15.7,10c9.7,1.1,19.7-9.7,19.7-11.9c0-2.2-14.9-81.4-15.1-82.2c-0.3-0.8,7-91.1,7-91.1S253,191.9,251.1,190.8z"
				/>
			<path class="st5" d="M250.3,249.5c-1.8,16.6-2.7,24.6-3.1,28c3-3.9,8-11,12.5-19.6c7-13.2,8.1-20.8,8.1-20.8l-8.1-8.7h7
				l-8.9-32.6c-3.6-2.7-6.3-4.7-6.8-5C251.1,190.8,252.5,229.7,250.3,249.5z"/>
		</g>
		<g>
			<path class="st4" d="M144.6,192.6c0,0-1.2-8.7-2.7-11.6c-1.5-2.9-0.4-3.5,1.3-3.5c1.7,0,4.2,3.5,4.7,5.4c0.5,1.9,0.5,1.9,0.5,1.9
				L144.6,192.6z"/>
			<g>
				<path class="st4" d="M150.4,208.9c0,0-7.2-10-7.3-11.4c-0.1-1.4,4.9-18.1,5-18.5c0.1-0.4,6.5-7.8,7-8.2c0.5-0.4,2.2-0.8,2.4-0.3
					c0.3,0.5,0.3,1.7-0.3,2.3c-0.5,0.6-4.9,6-4.9,6l-0.9,4.7c0,0,2.2-3.1,2.2-3.5c0-0.4,3.2-3.8,5-5.5c1.8-1.7,4.3-4,5-2.9
					c0.6,1,0.6,1.7,0.3,2.2c-0.4,0.5-6,6.3-6.3,6.6c-0.3,0.4-4.2,10.5-4.2,10.5s4.6-6.5,5.2-7.7c0.6-1.2,5.8-4.9,6.3-5.5
					c0.5-0.6,2.9-1.2,2.4,1s-5,5.2-5,5.2l-2.4,6.1c0,0,6.2-4.3,7.2-4.8c1-0.5,3.1,0.5,2.4,1.4c-0.7,1-7.4,6.2-7.4,6.2l-2.6,4.8
					c0,0,10.3,11.2,10.5,17.5c0.2,6.2,0,16,0,16l-16.5-9.8l1.2-4.1L150.4,208.9z"/>
				<path class="st2" d="M160,190.2l-4.5,5.8c0,0-0.5,1.7-0.4,2.4"/>
				<path class="st2" d="M153.8,189.8l-1.8,4.1c0,0-1,1.9-0.6,2.8"/>
				<path class="st2" d="M151.6,183.6c0,0-5,9.7-5.1,10.5c-0.1,0.8,1.2,2.6,1.2,2.6"/>
			</g>
		</g>
		<polygon class="st4" points="153.4,219 173.8,230.9 169.7,240.7 149.8,228.3 		"/>
		<path class="st5" d="M149,226.2l27.1,17.8c0,0-15.7,40.8-16.3,42.1c-0.5,1.3-8.3,17.8-13.7,21.4c-5.4,3.6-16,2.1-20.4-3.1
			c-4.4-5.2-4.9-11.9-3.4-15.7C124,284.8,149,226.2,149,226.2z"/>
	</g>
</g>
<g id="Coffee_Cups">
	<g>
		<rect x="309.9" y="389" class="st4" width="26.3" height="5.4"/>
		<polygon class="st15" points="332.9,432.6 313.2,432.6 309.9,396.8 336.1,396.8 		"/>
		<rect x="307.3" y="392.5" class="st4" width="31.5" height="6.4"/>
	</g>
	<g>
		<rect x="639.7" y="389" class="st4" width="26.3" height="5.4"/>
		<polygon class="st15" points="662.7,432.6 643,432.6 639.7,396.8 666,396.8 		"/>
		<rect x="637.1" y="392.5" class="st4" width="31.5" height="6.4"/>
	</g>
</g>
<g id="Device">
	<g>
		<rect x="453.1" y="429.1" class="st16" width="62.7" height="3.3"/>
		<polygon class="st16" points="446.7,348.8 320.7,348.8 328.5,432.4 454.5,432.4 		"/>
	</g>
</g>
<g id="Table">
	<line class="st2" x1="45.9" y1="432.6" x2="714.9" y2="432.6"/>
</g>
</svg>
