<?xml version="1.0" encoding="utf-8"?>
<!-- Generator: Adobe Illustrator 25.2.0, SVG Export Plug-In . SVG Version: 6.00 Build 0)  -->
<svg version="1.1" id="Layer_1" xmlns="http://www.w3.org/2000/svg" xmlns:xlink="http://www.w3.org/1999/xlink" x="0px" y="0px"
	 viewBox="0 0 600 200" style="enable-background:new 0 0 600 200;" xml:space="preserve">
<style type="text/css">
	.st0{fill:#F1EE82;}
	.st1{fill:#4B7767;}
</style>
<g>
	<path class="st0" d="M589.3,101.7c0,25.8-9.2,47.9-27.5,66.2c-18.4,18.3-40.5,27.5-66.4,27.5h-12.4c-6.2,0-11.6-2.1-16-6.5
		c-4.4-4.2-6.5-9.5-6.5-15.9c0-6,2-11.3,6-15.9c4.1-4.4,9.1-6.7,15-6.7h13.9c13.5-0.2,24.9-5,34.3-14.5c9.5-9.5,14.2-21,14.2-34.3
		c0-13.5-4.7-24.9-14.2-34.3c-9.5-9.5-20.9-14.2-34.2-14.2h-48.8v141.3l-13.8-0.2v2l-181.7-0.9H206V53.7H97
		c-13.5,0-24.9,4.8-34.3,14.4c-9.5,9.5-14.2,21-14.2,34.5c0,13.3,4.7,24.8,14.2,34.3s20.9,14.4,34.3,14.4h48.5v-26H97
		c-6.2,0-11.6-2.1-16-6.5c-4.4-4.4-6.7-9.7-6.7-16c0-6.3,2.3-11.6,6.7-16c4.4-4.4,9.8-6.7,16-6.7h93.9v116.2H97
		c-26,0-48.1-9.2-66.4-27.5S3.2,128.2,3.2,102.3c0-26,9.2-48.1,27.5-66.4C49,17.7,71.2,8.5,97,8.5h36l73.3-0.6h45.3V151h84
		c3.8,0,7-1.4,9.5-4.1s3.9-6,3.9-9.7s-1.4-6.8-3.9-9.4c-2.6-2.7-5.7-3.9-9.5-3.9h-44.6c-6.2,0-11.5-2.1-15.9-6.5
		c-4.2-4.4-6.5-9.7-6.5-15.7s2.1-11.3,6.5-15.7c4.2-4.4,9.5-6.5,15.9-6.5h40.1c3.8,0,7-1.4,9.5-3.9c2.6-2.6,3.9-5.7,3.9-9.5
		c0-3.8-1.4-7-3.9-9.5c-2.6-2.6-5.7-3.9-9.5-3.9h-67V8h67.9c15.9,0.3,29.3,6,40.4,17.4c11,11.3,16.6,24.8,16.6,40.7
		c0,12.2-3.5,23.3-10.3,33.1c9.8,11,14.8,24,14.8,38.7c0,4.7-0.5,9.1-1.5,13.3h9.7V8l93.9,0.3c25.8,0,47.9,9.2,66.2,27.5
		C580.3,54,589.3,76,589.3,101.7z"/>
	<g>
		<path class="st0" d="M433.2,194.2v0.2h13.8L433.2,194.2z"/>
	</g>
	<polygon class="st0" points="446.9,194.5 446.9,196.2 433.2,196.2 433.2,194.2 	"/>
</g>
<g>
	<path class="st1" d="M597.2,97.8c0,25.8-9.2,47.9-27.5,66.2c-18.4,18.3-40.5,27.5-66.4,27.5h-12.4c-6.2,0-11.6-2.1-16-6.5
		c-4.4-4.2-6.5-9.5-6.5-15.9c0-6,2-11.3,6-15.9c4.1-4.4,9.1-6.7,15-6.7h13.9c13.5-0.2,24.9-5,34.3-14.5c9.5-9.5,14.2-21,14.2-34.3
		c0-13.5-4.7-24.9-14.2-34.3c-9.5-9.5-20.9-14.2-34.2-14.2h-48.8v141.3l-13.8-0.2v2l-181.7-0.9h-45.3V49.7h-109
		c-13.5,0-24.9,4.8-34.3,14.4c-9.5,9.5-14.2,21-14.2,34.5c0,13.3,4.7,24.8,14.2,34.3c9.5,9.5,20.9,14.4,34.3,14.4h48.5v-26h-48.5
		c-6.2,0-11.6-2.1-16-6.5s-6.7-9.7-6.7-16c0-6.3,2.3-11.6,6.7-16c4.4-4.4,9.8-6.7,16-6.7h93.9v116.7h-93.9c-26,0-48.1-9.2-66.4-27.5
		C20.3,146.8,11,124.7,11,98.9c0-26,9.2-48.1,27.5-66.4C56.8,14.2,79.1,5,104.9,5h35.8L214,4.4h45.3v143.1h84.2c3.8,0,7-1.4,9.5-4.1
		s3.9-6,3.9-9.7s-1.4-6.8-3.9-9.4c-2.6-2.7-5.7-3.9-9.5-3.9H299c-6.2,0-11.5-2.1-15.9-6.5c-4.2-4.4-6.5-9.7-6.5-15.7
		s2.1-11.3,6.5-15.7c4.2-4.4,9.5-6.5,15.9-6.5H339c3.8,0,7-1.4,9.5-3.9c2.6-2.6,3.9-5.7,3.9-9.5c0-3.8-1.4-7-3.9-9.5
		c-2.6-2.6-5.7-3.9-9.5-3.9h-66.8V4.5h67.9c15.9,0.3,29.3,6,40.4,17.4s16.6,24.8,16.6,40.7c0,12.2-3.5,23.3-10.3,33.1
		c9.8,11,14.8,24,14.8,38.7c0,4.7-0.5,9.1-1.5,13.3h9.7V4.5l93.9,0.3c25.8,0,47.9,9.2,66.2,27.5C588,50,597.2,72.1,597.2,97.8z"/>
	<g>
		<path class="st1" d="M441.1,190.3v0.2h13.8L441.1,190.3z"/>
	</g>
	<polygon class="st1" points="454.8,190.6 454.8,192.4 441.1,192.4 441.1,190.3 	"/>
</g>
</svg>
