<?xml version="1.0" encoding="utf-8"?>
<!-- Generator: Adobe Illustrator 25.2.0, SVG Export Plug-In . SVG Version: 6.00 Build 0)  -->
<svg version="1.1" id="Layer_1" xmlns="http://www.w3.org/2000/svg" xmlns:xlink="http://www.w3.org/1999/xlink" x="0px" y="0px"
	 viewBox="0 0 200 200" style="enable-background:new 0 0 200 200;" xml:space="preserve">
<style type="text/css">
	.st0{fill:#FFFFFF;}
</style>
<g>
	<path class="st0" d="M47,7.1c-1.7-2.8-4.5-4.6-7.8-5C38.8,2,38.4,2,37.9,2c-2.8,0-5.4,1.1-7.4,3.1L6.1,29.5C3.3,32.2,1.8,36,2,39.9
		c0.8,17.5,7.3,62.8,51.3,106.8c44,44,89.3,50.5,106.8,51.3c3.9,0.1,7.7-1.3,10.4-4.1l24.4-24.4c2.3-2.3,3.4-5.5,3-8.7
		c-0.4-3.2-2.2-6.1-5-7.8l-37.4-22.4c-4.1-2.5-9.4-1.8-12.9,1.6l-11.4,11.4c-3.2,3.2-8.2,4-12.2,2c-6.7-3.4-18.4-11-35.9-28.6
		C65.5,99.3,57.8,87.7,54.5,80.9c-2.1-4.1-1.3-9,2-12.2l11.4-11.4c3.4-3.4,4.1-8.7,1.6-12.9L47,7.1z"/>
</g>
</svg>
